<svg width="66" height="88" viewBox="0 0 66 88" fill="none" xmlns="http://www.w3.org/2000/svg">
<g filter="url(#filter0_f_2_28)">
<path d="M50.7037 58.963L33.2963 58.963L15.8889 58.963C15.3366 58.963 14.8889 58.5153 14.8889 57.963L14.8889 15.2593C14.8889 14.707 15.3366 14.2593 15.8889 14.2593L50.7037 14.2593C51.256 14.2593 51.7037 14.707 51.7037 15.2593L51.7037 57.963C51.7037 58.5153 51.256 58.963 50.7037 58.963Z" fill="url(#paint0_linear_2_28)"/>
</g>
<path d="M60.6351 65.7008L44.4019 53.9272C44.0517 53.6732 43.5779 53.6732 43.2277 53.9272L26.9945 65.7008C26.3334 66.1802 25.4074 65.7079 25.4074 64.8912L25.4074 10C25.4074 9.44771 25.8551 9 26.4074 9L61.2222 9C61.7745 9 62.2222 9.44771 62.2222 10L62.2222 64.8913C62.2222 65.7079 61.2962 66.1802 60.6351 65.7008Z" fill="url(#paint1_linear_2_28)"/>
<g filter="url(#filter1_bd_2_28)">
<path d="M42.2277 78.8489L25.9945 67.0754C25.6443 66.8214 25.1705 66.8214 24.8203 67.0754L8.58712 78.8489C7.92601 79.3284 7.00001 78.8561 7.00001 78.0394L7.00001 23.1481C7.00001 22.5958 7.44772 22.1481 8.00001 22.1481L42.8148 22.1481C43.3671 22.1481 43.8148 22.5958 43.8148 23.1481L43.8148 78.0394C43.8148 78.8561 42.8888 79.3284 42.2277 78.8489Z" fill="url(#paint2_linear_2_28)" shape-rendering="crispEdges"/>
<path d="M25.789 67.3587L42.0222 79.1322C42.9147 79.7795 44.1648 79.1419 44.1648 78.0394L44.1648 23.1481C44.1648 22.4025 43.5604 21.7981 42.8148 21.7981L8.00001 21.7981C7.25443 21.7981 6.65001 22.4025 6.65001 23.1481L6.65001 78.0394C6.65001 79.1419 7.90011 79.7795 8.79261 79.1322L25.0258 67.3587C25.2534 67.1936 25.5614 67.1936 25.789 67.3587Z" stroke="url(#paint3_linear_2_28)" stroke-width="0.7" shape-rendering="crispEdges"/>
</g>
<g filter="url(#filter2_di_2_28)">
<path fill-rule="evenodd" clip-rule="evenodd" d="M26.1084 37.4105C25.998 37.4105 25.9084 37.321 25.9084 37.2105V30.237C25.9084 30.1266 25.8189 30.037 25.7084 30.037L25.1084 30.037C24.998 30.037 24.9084 30.1266 24.9084 30.237L24.9084 37.2105C24.9084 37.321 24.8189 37.4105 24.7084 37.4105H17.7186C17.6081 37.4105 17.5186 37.5001 17.5186 37.6105L17.5186 38.2105C17.5186 38.321 17.6081 38.4105 17.7186 38.4105H24.7084C24.8189 38.4105 24.9084 38.5001 24.9084 38.6105L24.9084 45.6148C24.9084 45.7253 24.998 45.8148 25.1084 45.8148H25.7084C25.8189 45.8148 25.9084 45.7253 25.9084 45.6148V38.6105C25.9084 38.5001 25.998 38.4105 26.1084 38.4105H33.0963C33.2068 38.4105 33.2963 38.321 33.2963 38.2105V37.6105C33.2963 37.5001 33.2068 37.4105 33.0963 37.4105H26.1084Z" fill="url(#paint4_linear_2_28)" shape-rendering="crispEdges"/>
</g>
<defs>
<filter id="filter0_f_2_28" x="0.888916" y="0.259277" width="64.8148" height="72.7037" filterUnits="userSpaceOnUse" color-interpolation-filters="sRGB">
<feFlood flood-opacity="0" result="BackgroundImageFix"/>
<feBlend mode="normal" in="SourceGraphic" in2="BackgroundImageFix" result="shape"/>
<feGaussianBlur stdDeviation="7" result="effect1_foregroundBlur_2_28"/>
</filter>
<filter id="filter1_bd_2_28" x="1.29999" y="16.4481" width="48.2148" height="71.2943" filterUnits="userSpaceOnUse" color-interpolation-filters="sRGB">
<feFlood flood-opacity="0" result="BackgroundImageFix"/>
<feGaussianBlur in="BackgroundImageFix" stdDeviation="2.5"/>
<feComposite in2="SourceAlpha" operator="in" result="effect1_backgroundBlur_2_28"/>
<feColorMatrix in="SourceAlpha" type="matrix" values="0 0 0 0 0 0 0 0 0 0 0 0 0 0 0 0 0 0 127 0" result="hardAlpha"/>
<feOffset dy="4"/>
<feGaussianBlur stdDeviation="2"/>
<feComposite in2="hardAlpha" operator="out"/>
<feColorMatrix type="matrix" values="0 0 0 0 0 0 0 0 0 0 0 0 0 0 0 0 0 0 0.25 0"/>
<feBlend mode="normal" in2="effect1_backgroundBlur_2_28" result="effect2_dropShadow_2_28"/>
<feBlend mode="normal" in="SourceGraphic" in2="effect2_dropShadow_2_28" result="shape"/>
</filter>
<filter id="filter2_di_2_28" x="13.2186" y="26.737" width="24.3778" height="24.3778" filterUnits="userSpaceOnUse" color-interpolation-filters="sRGB">
<feFlood flood-opacity="0" result="BackgroundImageFix"/>
<feColorMatrix in="SourceAlpha" type="matrix" values="0 0 0 0 0 0 0 0 0 0 0 0 0 0 0 0 0 0 127 0" result="hardAlpha"/>
<feOffset dy="1"/>
<feGaussianBlur stdDeviation="2.15"/>
<feComposite in2="hardAlpha" operator="out"/>
<feColorMatrix type="matrix" values="0 0 0 0 0 0 0 0 0 0 0 0 0 0 0 0 0 0 0.25 0"/>
<feBlend mode="normal" in2="BackgroundImageFix" result="effect1_dropShadow_2_28"/>
<feBlend mode="normal" in="SourceGraphic" in2="effect1_dropShadow_2_28" result="shape"/>
<feColorMatrix in="SourceAlpha" type="matrix" values="0 0 0 0 0 0 0 0 0 0 0 0 0 0 0 0 0 0 127 0" result="hardAlpha"/>
<feOffset dy="8"/>
<feGaussianBlur stdDeviation="2"/>
<feComposite in2="hardAlpha" operator="arithmetic" k2="-1" k3="1"/>
<feColorMatrix type="matrix" values="0 0 0 0 1 0 0 0 0 1 0 0 0 0 1 0 0 0 0.25 0"/>
<feBlend mode="normal" in2="shape" result="effect2_innerShadow_2_28"/>
</filter>
<linearGradient id="paint0_linear_2_28" x1="51.7037" y1="14.2593" x2="7.82959" y2="50.3909" gradientUnits="userSpaceOnUse">
<stop stop-color="white"/>
<stop offset="1" stop-color="#202020"/>
</linearGradient>
<linearGradient id="paint1_linear_2_28" x1="62.2222" y1="9" x2="9.81526" y2="42.3499" gradientUnits="userSpaceOnUse">
<stop stop-color="white"/>
<stop offset="1" stop-color="#4A4A4A"/>
</linearGradient>
<linearGradient id="paint2_linear_2_28" x1="3.31853" y1="13.4704" x2="62.0716" y2="52.5581" gradientUnits="userSpaceOnUse">
<stop stop-color="white" stop-opacity="0.2"/>
<stop offset="1" stop-color="white" stop-opacity="0.5"/>
</linearGradient>
<linearGradient id="paint3_linear_2_28" x1="3.31853" y1="74.2148" x2="55.7513" y2="46.2802" gradientUnits="userSpaceOnUse">
<stop stop-color="white" stop-opacity="0"/>
<stop offset="1" stop-color="white"/>
</linearGradient>
<linearGradient id="paint4_linear_2_28" x1="15.1519" y1="47.3926" x2="33.2963" y2="30.037" gradientUnits="userSpaceOnUse">
<stop stop-color="white" stop-opacity="0.2"/>
<stop offset="1" stop-color="white" stop-opacity="0.5"/>
</linearGradient>
</defs>
</svg>
