<svg width="71" height="71" viewBox="0 0 71 71" fill="none" xmlns="http://www.w3.org/2000/svg">
<path fill-rule="evenodd" clip-rule="evenodd" d="M26.6111 20.1797C26.3521 19.4169 26.2127 18.6068 26.2127 17.7671C26.2127 13.2368 30.2708 9.56433 35.2768 9.56433C39.205 9.56433 42.5496 11.8258 43.8077 14.9886C45.0657 11.8258 48.4103 9.56433 52.3385 9.56433C57.3445 9.56433 61.4026 13.2368 61.4026 17.7671C61.4026 18.6068 61.2632 19.4169 61.0042 20.1797H65C68.3137 20.1797 70.9999 22.866 70.9999 26.1797V63.3965C70.9999 66.7102 68.3137 69.3965 64.9999 69.3965H23.6818C20.368 69.3965 17.6818 66.7102 17.6818 63.3965V26.1797C17.6818 22.866 20.3681 20.1797 23.6818 20.1797H26.6111Z" fill="url(#paint0_radial_2_88)"/>
<g filter="url(#filter0_b_2_88)">
<mask id="path-2-inside-1_2_88" fill="white">
<path fill-rule="evenodd" clip-rule="evenodd" d="M13.7542 14.6154C13.5003 13.8526 13.3636 13.0424 13.3636 12.2028C13.3636 7.67252 17.3422 4 22.25 4C26.1013 4 29.3803 6.26149 30.6136 9.42433C31.847 6.26149 35.126 4 38.9773 4C43.8851 4 47.8636 7.67252 47.8636 12.2028C47.8636 13.0424 47.727 13.8526 47.473 14.6154H51.2727C54.5864 14.6154 57.2727 17.3017 57.2727 20.6154V57.8321C57.2727 61.1459 54.5864 63.8321 51.2727 63.8321H11C7.68629 63.8321 5 61.1459 5 57.8321V20.6154C5 17.3016 7.68629 14.6154 11 14.6154H13.7542Z"/>
</mask>
<path fill-rule="evenodd" clip-rule="evenodd" d="M13.7542 14.6154C13.5003 13.8526 13.3636 13.0424 13.3636 12.2028C13.3636 7.67252 17.3422 4 22.25 4C26.1013 4 29.3803 6.26149 30.6136 9.42433C31.847 6.26149 35.126 4 38.9773 4C43.8851 4 47.8636 7.67252 47.8636 12.2028C47.8636 13.0424 47.727 13.8526 47.473 14.6154H51.2727C54.5864 14.6154 57.2727 17.3017 57.2727 20.6154V57.8321C57.2727 61.1459 54.5864 63.8321 51.2727 63.8321H11C7.68629 63.8321 5 61.1459 5 57.8321V20.6154C5 17.3016 7.68629 14.6154 11 14.6154H13.7542Z" fill="#353535" fill-opacity="0.15"/>
<path d="M13.7542 14.6154V15.1154H14.4476L14.2286 14.4574L13.7542 14.6154ZM30.6136 9.42433L30.1478 9.60598L30.6136 10.8006L31.0795 9.60598L30.6136 9.42433ZM47.473 14.6154L46.9986 14.4574L46.7796 15.1154H47.473V14.6154ZM14.2286 14.4574C13.9913 13.7446 13.8636 12.9877 13.8636 12.2028H12.8636C12.8636 13.0971 13.0093 13.9605 13.2798 14.7733L14.2286 14.4574ZM13.8636 12.2028C13.8636 7.98559 17.5799 4.5 22.25 4.5V3.5C17.1045 3.5 12.8636 7.35945 12.8636 12.2028H13.8636ZM22.25 4.5C25.9083 4.5 28.994 6.64702 30.1478 9.60598L31.0795 9.24268C29.7666 5.87597 26.2942 3.5 22.25 3.5V4.5ZM31.0795 9.60598C32.2333 6.64702 35.3189 4.5 38.9773 4.5V3.5C34.933 3.5 31.4606 5.87597 30.1478 9.24268L31.0795 9.60598ZM38.9773 4.5C43.6474 4.5 47.3636 7.98559 47.3636 12.2028H48.3636C48.3636 7.35945 44.1228 3.5 38.9773 3.5V4.5ZM47.3636 12.2028C47.3636 12.9877 47.2359 13.7446 46.9986 14.4574L47.9475 14.7733C48.218 13.9605 48.3636 13.0971 48.3636 12.2028H47.3636ZM47.473 15.1154H51.2727V14.1154H47.473V15.1154ZM51.2727 15.1154C54.3103 15.1154 56.7727 17.5778 56.7727 20.6154H57.7727C57.7727 17.0255 54.8626 14.1154 51.2727 14.1154V15.1154ZM56.7727 20.6154V57.8321H57.7727V20.6154H56.7727ZM56.7727 57.8321C56.7727 60.8697 54.3103 63.3321 51.2727 63.3321V64.3321C54.8626 64.3321 57.7727 61.422 57.7727 57.8321H56.7727ZM51.2727 63.3321H11V64.3321H51.2727V63.3321ZM11 63.3321C7.96244 63.3321 5.5 60.8697 5.5 57.8321H4.5C4.5 61.422 7.41015 64.3321 11 64.3321V63.3321ZM5.5 57.8321V20.6154H4.5V57.8321H5.5ZM5.5 20.6154C5.5 17.5778 7.96243 15.1154 11 15.1154V14.1154C7.41015 14.1154 4.5 17.0255 4.5 20.6154H5.5ZM11 15.1154H13.7542V14.1154H11V15.1154Z" fill="url(#paint1_linear_2_88)" mask="url(#path-2-inside-1_2_88)"/>
</g>
<g filter="url(#filter1_dd_2_88)">
<rect x="28.9999" y="24" width="4" height="39" fill="white"/>
</g>
<g filter="url(#filter2_di_2_88)">
<rect width="2.86603" height="51.1299" transform="matrix(0.0161383 -0.99987 0.999905 0.0137514 5.50385 24.2551)" fill="white"/>
</g>
<g filter="url(#filter3_d_2_88)">
<path d="M27.86 13.0556C28.44 15.8082 27.28 16.3587 23.22 15.8082C20.32 15.4149 18 13.8364 18 11.4041C18 8.97177 20.3371 7 23.22 7C26.1029 7 27.28 10.3031 27.86 13.0556Z" fill="white"/>
</g>
<path d="M36.1431 12.8285C35.6786 14.8694 36.6075 15.2776 39.8587 14.8694C42.1809 14.5778 44.0387 13.4074 44.0387 11.6039C44.0387 9.80049 42.1672 8.3385 39.8587 8.3385C37.5501 8.3385 36.6075 10.7876 36.1431 12.8285Z" fill="white"/>
<defs>
<filter id="filter0_b_2_88" x="0.8" y="-0.2" width="60.6727" height="68.2322" filterUnits="userSpaceOnUse" color-interpolation-filters="sRGB">
<feFlood flood-opacity="0" result="BackgroundImageFix"/>
<feGaussianBlur in="BackgroundImageFix" stdDeviation="2.1"/>
<feComposite in2="SourceAlpha" operator="in" result="effect1_backgroundBlur_2_88"/>
<feBlend mode="normal" in="SourceGraphic" in2="effect1_backgroundBlur_2_88" result="shape"/>
</filter>
<filter id="filter1_dd_2_88" x="23.7999" y="18.8" width="14.4" height="52.2" filterUnits="userSpaceOnUse" color-interpolation-filters="sRGB">
<feFlood flood-opacity="0" result="BackgroundImageFix"/>
<feColorMatrix in="SourceAlpha" type="matrix" values="0 0 0 0 0 0 0 0 0 0 0 0 0 0 0 0 0 0 127 0" result="hardAlpha"/>
<feOffset dy="4"/>
<feGaussianBlur stdDeviation="2"/>
<feComposite in2="hardAlpha" operator="out"/>
<feColorMatrix type="matrix" values="0 0 0 0 0 0 0 0 0 0 0 0 0 0 0 0 0 0 0.25 0"/>
<feBlend mode="normal" in2="BackgroundImageFix" result="effect1_dropShadow_2_88"/>
<feColorMatrix in="SourceAlpha" type="matrix" values="0 0 0 0 0 0 0 0 0 0 0 0 0 0 0 0 0 0 127 0" result="hardAlpha"/>
<feOffset/>
<feGaussianBlur stdDeviation="2.6"/>
<feComposite in2="hardAlpha" operator="out"/>
<feColorMatrix type="matrix" values="0 0 0 0 0 0 0 0 0 0 0 0 0 0 0 0 0 0 0.25 0"/>
<feBlend mode="normal" in2="effect1_dropShadow_2_88" result="effect2_dropShadow_2_88"/>
<feBlend mode="normal" in="SourceGraphic" in2="effect2_dropShadow_2_88" result="shape"/>
</filter>
<filter id="filter2_di_2_88" x="0.603845" y="16.4895" width="60.9714" height="13.3688" filterUnits="userSpaceOnUse" color-interpolation-filters="sRGB">
<feFlood flood-opacity="0" result="BackgroundImageFix"/>
<feColorMatrix in="SourceAlpha" type="matrix" values="0 0 0 0 0 0 0 0 0 0 0 0 0 0 0 0 0 0 127 0" result="hardAlpha"/>
<feOffset/>
<feGaussianBlur stdDeviation="2.45"/>
<feComposite in2="hardAlpha" operator="out"/>
<feColorMatrix type="matrix" values="0 0 0 0 1 0 0 0 0 1 0 0 0 0 1 0 0 0 0.25 0"/>
<feBlend mode="normal" in2="BackgroundImageFix" result="effect1_dropShadow_2_88"/>
<feBlend mode="normal" in="SourceGraphic" in2="effect1_dropShadow_2_88" result="shape"/>
<feColorMatrix in="SourceAlpha" type="matrix" values="0 0 0 0 0 0 0 0 0 0 0 0 0 0 0 0 0 0 127 0" result="hardAlpha"/>
<feOffset/>
<feGaussianBlur stdDeviation="2"/>
<feComposite in2="hardAlpha" operator="arithmetic" k2="-1" k3="1"/>
<feColorMatrix type="matrix" values="0 0 0 0 0 0 0 0 0 0 0 0 0 0 0 0 0 0 0.25 0"/>
<feBlend mode="normal" in2="shape" result="effect2_innerShadow_2_88"/>
</filter>
<filter id="filter3_d_2_88" x="11.8" y="0.8" width="22.4" height="21.4" filterUnits="userSpaceOnUse" color-interpolation-filters="sRGB">
<feFlood flood-opacity="0" result="BackgroundImageFix"/>
<feColorMatrix in="SourceAlpha" type="matrix" values="0 0 0 0 0 0 0 0 0 0 0 0 0 0 0 0 0 0 127 0" result="hardAlpha"/>
<feOffset/>
<feGaussianBlur stdDeviation="3.1"/>
<feComposite in2="hardAlpha" operator="out"/>
<feColorMatrix type="matrix" values="0 0 0 0 1 0 0 0 0 1 0 0 0 0 1 0 0 0 0.25 0"/>
<feBlend mode="normal" in2="BackgroundImageFix" result="effect1_dropShadow_2_88"/>
<feBlend mode="normal" in="SourceGraphic" in2="effect1_dropShadow_2_88" result="shape"/>
</filter>
<radialGradient id="paint0_radial_2_88" cx="0" cy="0" r="1" gradientUnits="userSpaceOnUse" gradientTransform="translate(44.3409 39.4804) rotate(90) scale(29.9161 26.6591)">
<stop stop-color="#807F7F"/>
<stop offset="1" stop-color="#C0C0C0"/>
</radialGradient>
<linearGradient id="paint1_linear_2_88" x1="31.1364" y1="4" x2="31.1364" y2="63.8322" gradientUnits="userSpaceOnUse">
<stop stop-color="#AAA9A9"/>
<stop offset="1" stop-color="#9C9C9C"/>
</linearGradient>
</defs>
</svg>
