<svg width="82" height="92" viewBox="0 0 82 92" fill="none" xmlns="http://www.w3.org/2000/svg">
<g filter="url(#filter0_f_10_27)">
<path d="M55.9489 67.8065L41.7056 57.6327C41.3579 57.3843 40.8908 57.3843 40.5431 57.6327L26.2998 67.8065C25.6379 68.2792 24.7186 67.8061 24.7186 66.9927V25.4059C24.7186 24.8536 25.1663 24.4059 25.7186 24.4059H41.1244H56.5302C57.0824 24.4059 57.5302 24.8536 57.5302 25.4059V66.9927C57.5302 67.8061 56.6108 68.2792 55.9489 67.8065Z" fill="url(#paint0_linear_10_27)"/>
</g>
<path d="M55.949 87.9622L41.7057 77.7884C41.358 77.5401 40.8909 77.5401 40.5432 77.7884L26.2999 87.9622C25.6381 88.435 24.7187 87.9619 24.7187 87.1485V45.5617C24.7187 45.0094 25.1664 44.5617 25.7187 44.5617H41.1245H56.5303C57.0826 44.5617 57.5303 45.0094 57.5303 45.5617V87.1485C57.5303 87.9619 56.6109 88.435 55.949 87.9622Z" fill="url(#paint1_linear_10_27)"/>
<g filter="url(#filter1_bd_10_27)">
<circle cx="41.1242" cy="36.1242" r="28.1242" fill="url(#paint2_linear_10_27)" shape-rendering="crispEdges"/>
<circle cx="41.1242" cy="36.1242" r="27.6242" stroke="url(#paint3_linear_10_27)" shape-rendering="crispEdges"/>
</g>
<g filter="url(#filter2_di_10_27)">
<path d="M40.7439 20.8893C40.8636 20.5208 41.385 20.5208 41.5047 20.8893L44.1916 29.1587C44.2452 29.3236 44.3988 29.4351 44.5721 29.4351H53.2671C53.6546 29.4351 53.8157 29.931 53.5022 30.1587L46.4678 35.2696C46.3276 35.3714 46.2689 35.552 46.3225 35.7168L49.0094 43.9862C49.1291 44.3548 48.7073 44.6612 48.3938 44.4334L41.3594 39.3226C41.2192 39.2208 41.0294 39.2208 40.8892 39.3226L33.8548 44.4334C33.5413 44.6612 33.1195 44.3548 33.2392 43.9862L35.9261 35.7168C35.9797 35.552 35.921 35.3714 35.7808 35.2696L28.7464 30.1587C28.4329 29.931 28.594 29.4351 28.9815 29.4351H37.6765C37.8498 29.4351 38.0034 29.3236 38.057 29.1587L40.7439 20.8893Z" fill="url(#paint4_linear_10_27)" shape-rendering="crispEdges"/>
</g>
<defs>
<filter id="filter0_f_10_27" x="0.718567" y="0.405914" width="80.8116" height="91.5886" filterUnits="userSpaceOnUse" color-interpolation-filters="sRGB">
<feFlood flood-opacity="0" result="BackgroundImageFix"/>
<feBlend mode="normal" in="SourceGraphic" in2="BackgroundImageFix" result="shape"/>
<feGaussianBlur stdDeviation="12" result="effect1_foregroundBlur_10_27"/>
</filter>
<filter id="filter1_bd_10_27" x="9" y="4" width="64.2484" height="68.2484" filterUnits="userSpaceOnUse" color-interpolation-filters="sRGB">
<feFlood flood-opacity="0" result="BackgroundImageFix"/>
<feGaussianBlur in="BackgroundImageFix" stdDeviation="2"/>
<feComposite in2="SourceAlpha" operator="in" result="effect1_backgroundBlur_10_27"/>
<feColorMatrix in="SourceAlpha" type="matrix" values="0 0 0 0 0 0 0 0 0 0 0 0 0 0 0 0 0 0 127 0" result="hardAlpha"/>
<feOffset dy="4"/>
<feGaussianBlur stdDeviation="2"/>
<feComposite in2="hardAlpha" operator="out"/>
<feColorMatrix type="matrix" values="0 0 0 0 0 0 0 0 0 0 0 0 0 0 0 0 0 0 0.25 0"/>
<feBlend mode="normal" in2="effect1_backgroundBlur_10_27" result="effect2_dropShadow_10_27"/>
<feBlend mode="normal" in="SourceGraphic" in2="effect2_dropShadow_10_27" result="shape"/>
</filter>
<filter id="filter2_di_10_27" x="22.5807" y="15.6129" width="37.0871" height="35.8988" filterUnits="userSpaceOnUse" color-interpolation-filters="sRGB">
<feFlood flood-opacity="0" result="BackgroundImageFix"/>
<feColorMatrix in="SourceAlpha" type="matrix" values="0 0 0 0 0 0 0 0 0 0 0 0 0 0 0 0 0 0 127 0" result="hardAlpha"/>
<feOffset dy="1"/>
<feGaussianBlur stdDeviation="3"/>
<feComposite in2="hardAlpha" operator="out"/>
<feColorMatrix type="matrix" values="0 0 0 0 0 0 0 0 0 0 0 0 0 0 0 0 0 0 0.25 0"/>
<feBlend mode="normal" in2="BackgroundImageFix" result="effect1_dropShadow_10_27"/>
<feBlend mode="normal" in="SourceGraphic" in2="effect1_dropShadow_10_27" result="shape"/>
<feColorMatrix in="SourceAlpha" type="matrix" values="0 0 0 0 0 0 0 0 0 0 0 0 0 0 0 0 0 0 127 0" result="hardAlpha"/>
<feOffset dy="8"/>
<feGaussianBlur stdDeviation="2"/>
<feComposite in2="hardAlpha" operator="arithmetic" k2="-1" k3="1"/>
<feColorMatrix type="matrix" values="0 0 0 0 1 0 0 0 0 1 0 0 0 0 1 0 0 0 0.25 0"/>
<feBlend mode="normal" in2="shape" result="effect2_innerShadow_10_27"/>
</filter>
<linearGradient id="paint0_linear_10_27" x1="24.7186" y1="24.4059" x2="67.2499" y2="55.7448" gradientUnits="userSpaceOnUse">
<stop stop-color="white"/>
<stop offset="0.98" stop-color="#3D3D3D"/>
</linearGradient>
<linearGradient id="paint1_linear_10_27" x1="24.7187" y1="44.5617" x2="67.25" y2="75.9006" gradientUnits="userSpaceOnUse">
<stop stop-color="white"/>
<stop offset="0.98" stop-color="#3C3C3C"/>
</linearGradient>
<linearGradient id="paint2_linear_10_27" x1="4.56273" y1="69.8733" x2="69.2484" y2="8" gradientUnits="userSpaceOnUse">
<stop stop-color="white" stop-opacity="0.2"/>
<stop offset="1" stop-color="white" stop-opacity="0.5"/>
</linearGradient>
<linearGradient id="paint3_linear_10_27" x1="63.6236" y1="69.8733" x2="13" y2="9.40621" gradientUnits="userSpaceOnUse">
<stop stop-color="white" stop-opacity="0"/>
<stop offset="1" stop-color="white"/>
</linearGradient>
<linearGradient id="paint4_linear_10_27" x1="22.8436" y1="50.6551" x2="55.1864" y2="19.7185" gradientUnits="userSpaceOnUse">
<stop stop-color="white" stop-opacity="0.2"/>
<stop offset="1" stop-color="white" stop-opacity="0.5"/>
</linearGradient>
</defs>
</svg>
