<svg width="119" height="114" viewBox="0 0 119 114" fill="none" xmlns="http://www.w3.org/2000/svg">
<g filter="url(#filter0_f_16_109)">
<rect x="47" y="47" width="25" height="20" fill="#00FFB8"/>
</g>
<circle cx="60" cy="43.7313" r="24.6716" fill="url(#paint0_linear_16_109)"/>
<g filter="url(#filter1_d_16_109)">
<circle cx="60.4329" cy="44.1642" r="20.7761" fill="url(#paint1_linear_16_109)"/>
<circle cx="60.4329" cy="44.1642" r="20.2761" stroke="url(#paint2_linear_16_109)"/>
</g>
<rect x="35" y="41" width="50" height="2" fill="#1E1E1E"/>
<rect x="61" y="19" width="52" height="2" transform="rotate(90 61 19)" fill="#1E1E1E"/>
<rect x="56.9701" y="46.7612" width="6.0597" height="6.0597" fill="url(#paint3_linear_16_109)"/>
<g filter="url(#filter2_bi_16_109)">
<path d="M60.0654 31.1791C59.7754 31.1791 59.4883 31.2841 59.2756 31.4591C58.4611 32.1592 57.6457 32.8243 56.9371 33.4194C54.8818 35.1346 53.0744 36.6397 51.8461 38.1099C50.4422 39.7901 49.832 41.3303 49.879 43.0455C49.924 44.6907 50.5461 46.2309 51.6642 47.351C52.7823 48.4711 54.2856 49.1012 55.9167 49.1012C57.1128 49.1012 58.2259 48.7162 59.1854 48.0161C59.5764 47.736 59.893 47.386 60.2087 47.0009C60.3489 46.8259 60.6026 46.8259 60.7524 47.0009C61.0892 47.386 61.4603 47.701 61.8314 48.0161C62.8301 48.7512 63.9633 49.1012 65.1595 49.1012C66.7906 49.1012 68.2594 48.4711 69.3161 47.351C70.3728 46.2309 70.9106 44.6907 70.8655 43.0455C70.8185 41.3303 70.1239 39.7901 68.629 38.1449C67.3201 36.6747 65.4304 35.1696 63.2811 33.4544C62.5399 32.8593 61.688 32.1942 60.8352 31.4941C60.6482 31.2841 60.3554 31.1791 60.0654 31.1791Z" fill="white" fill-opacity="0.28"/>
<path d="M57.2586 33.7736L57.2575 33.7745L57.2435 33.7862C55.1829 35.5058 53.4178 36.9788 52.2241 38.4076C50.8711 40.0269 50.3172 41.4654 50.3604 43.0455C50.4026 44.587 50.9847 46.009 52.0067 47.033C53.0312 48.0593 54.4059 48.6362 55.904 48.6362C56.9884 48.6362 58.0034 48.2883 58.8886 47.6424L58.8885 47.6424L58.8919 47.64C59.2319 47.3965 59.5177 47.0849 59.8267 46.7081C60.1531 46.3036 60.7698 46.3036 61.1183 46.7081C61.4234 47.0565 61.7616 47.3458 62.1305 47.659C63.0363 48.3213 64.0588 48.6362 65.1467 48.6362C66.6448 48.6362 67.9879 48.0593 68.9561 47.033C69.9221 46.009 70.4263 44.587 70.3841 43.0455C70.3408 41.4652 69.708 40.0281 68.2706 38.4463L68.2706 38.4463L68.2673 38.4426C66.9953 37.0138 65.1496 35.5408 62.9948 33.8212L62.9801 33.8095L62.979 33.8086C62.7284 33.6074 62.4627 33.3963 62.1874 33.1776C61.6573 32.7564 61.0915 32.3069 60.5289 31.845L60.499 31.8205L60.4735 31.7918C60.4012 31.7106 60.2592 31.6441 60.0781 31.6441C59.905 31.6441 59.7269 31.7081 59.597 31.8136C59.061 32.2742 58.5214 32.7225 58.0157 33.1426C57.7524 33.3613 57.4982 33.5724 57.2586 33.7736Z" stroke="url(#paint4_linear_16_109)" stroke-opacity="0.7"/>
</g>
<g filter="url(#filter3_bd_16_109)">
<path d="M79.9643 57.06L68.736 65.893C68.6479 65.9623 68.539 66 68.4269 66H53.85C53.5739 66 53.35 65.7761 53.35 65.5V63.5C53.35 63.2239 53.5739 63 53.85 63H65.7482C66.0241 62.9999 66.2947 62.9261 66.5314 62.7867C66.768 62.6472 66.9617 62.4472 67.0919 62.208C67.2221 61.9688 67.2839 61.6993 67.2707 61.4283C67.2575 61.1573 67.1699 60.8949 67.017 60.669L64.3087 56.673C63.753 55.8504 62.9991 55.1759 62.1141 54.7095C61.2291 54.2431 60.2405 53.9994 59.2365 54H35.05C34.2411 54 33.4653 54.3161 32.8933 54.8787C32.3213 55.4413 32 56.2044 32 57V75C32 76.5913 32.6427 78.1174 33.7866 79.2426C34.9306 80.3679 36.4822 81 38.1 81H67.499C68.8032 81.0003 70.0924 80.7263 71.2801 80.1965C72.4679 79.6667 73.5268 78.8932 74.3858 77.928L92.4932 57.5698C92.7325 57.3008 92.6175 56.8746 92.2754 56.7624L88.5714 55.548C87.1225 55.073 85.5757 54.9624 84.0722 55.2266C82.5687 55.4907 81.1564 56.121 79.9643 57.06Z" fill="url(#paint5_linear_16_109)" shape-rendering="crispEdges"/>
<path d="M80.1807 57.3351L80.1809 57.335C81.3273 56.432 82.6859 55.8254 84.1328 55.5713C85.5797 55.3171 87.0682 55.4235 88.4624 55.8806L92.1663 57.095C92.269 57.1286 92.3034 57.2565 92.2317 57.3372L74.1244 77.6953C73.2986 78.6232 72.2803 79.3671 71.1376 79.8769C69.9948 80.3866 68.7542 80.6503 67.499 80.65H67.499H38.1C36.5732 80.65 35.11 80.0533 34.0321 78.9931C32.9544 77.9331 32.35 76.4966 32.35 75V57C32.35 56.2991 32.633 55.6256 33.1388 55.1282C33.6447 54.6306 34.3321 54.35 35.05 54.35L59.2365 54.35L59.2367 54.35C60.184 54.3494 61.1165 54.5794 61.9509 55.0191C62.7854 55.4588 63.4955 56.0945 64.0186 56.8689L64.0189 56.8694L66.7272 60.8651C66.8442 61.0382 66.9111 61.2387 66.9211 61.4453C66.9312 61.6519 66.8841 61.8577 66.7845 62.0407C66.6848 62.2237 66.5362 62.3776 66.3536 62.4851C66.1711 62.5928 65.9618 62.6499 65.7481 62.65H53.85C53.3806 62.65 53 63.0306 53 63.5V65.5C53 65.9694 53.3806 66.35 53.85 66.35H68.4269C68.6175 66.35 68.8026 66.2859 68.9524 66.1681L80.1807 57.3351Z" stroke="url(#paint6_linear_16_109)" stroke-width="0.7" shape-rendering="crispEdges"/>
</g>
<defs>
<filter id="filter0_f_16_109" x="0.100029" y="0.0999985" width="118.8" height="113.8" filterUnits="userSpaceOnUse" color-interpolation-filters="sRGB">
<feFlood flood-opacity="0" result="BackgroundImageFix"/>
<feBlend mode="normal" in="SourceGraphic" in2="BackgroundImageFix" result="shape"/>
<feGaussianBlur stdDeviation="23.45" result="effect1_foregroundBlur_16_109"/>
</filter>
<filter id="filter1_d_16_109" x="37.1568" y="20.8881" width="46.5522" height="46.5522" filterUnits="userSpaceOnUse" color-interpolation-filters="sRGB">
<feFlood flood-opacity="0" result="BackgroundImageFix"/>
<feColorMatrix in="SourceAlpha" type="matrix" values="0 0 0 0 0 0 0 0 0 0 0 0 0 0 0 0 0 0 127 0" result="hardAlpha"/>
<feOffset/>
<feGaussianBlur stdDeviation="1.25"/>
<feComposite in2="hardAlpha" operator="out"/>
<feColorMatrix type="matrix" values="0 0 0 0 0 0 0 0 0 0 0 0 0 0 0 0 0 0 0.46 0"/>
<feBlend mode="normal" in2="BackgroundImageFix" result="effect1_dropShadow_16_109"/>
<feBlend mode="normal" in="SourceGraphic" in2="effect1_dropShadow_16_109" result="shape"/>
</filter>
<filter id="filter2_bi_16_109" x="36.8764" y="18.1791" width="46.9917" height="43.9221" filterUnits="userSpaceOnUse" color-interpolation-filters="sRGB">
<feFlood flood-opacity="0" result="BackgroundImageFix"/>
<feGaussianBlur in="BackgroundImageFix" stdDeviation="6.5"/>
<feComposite in2="SourceAlpha" operator="in" result="effect1_backgroundBlur_16_109"/>
<feBlend mode="normal" in="SourceGraphic" in2="effect1_backgroundBlur_16_109" result="shape"/>
<feColorMatrix in="SourceAlpha" type="matrix" values="0 0 0 0 0 0 0 0 0 0 0 0 0 0 0 0 0 0 127 0" result="hardAlpha"/>
<feOffset dx="9" dy="4"/>
<feGaussianBlur stdDeviation="27.1"/>
<feComposite in2="hardAlpha" operator="arithmetic" k2="-1" k3="1"/>
<feColorMatrix type="matrix" values="0 0 0 0 1 0 0 0 0 1 0 0 0 0 1 0 0 0 0.69 0"/>
<feBlend mode="normal" in2="shape" result="effect2_innerShadow_16_109"/>
</filter>
<filter id="filter3_bd_16_109" x="28" y="50" width="68.6198" height="39" filterUnits="userSpaceOnUse" color-interpolation-filters="sRGB">
<feFlood flood-opacity="0" result="BackgroundImageFix"/>
<feGaussianBlur in="BackgroundImageFix" stdDeviation="2"/>
<feComposite in2="SourceAlpha" operator="in" result="effect1_backgroundBlur_16_109"/>
<feColorMatrix in="SourceAlpha" type="matrix" values="0 0 0 0 0 0 0 0 0 0 0 0 0 0 0 0 0 0 127 0" result="hardAlpha"/>
<feOffset dy="4"/>
<feGaussianBlur stdDeviation="2"/>
<feComposite in2="hardAlpha" operator="out"/>
<feColorMatrix type="matrix" values="0 0 0 0 0 0 0 0 0 0 0 0 0 0 0 0 0 0 0.25 0"/>
<feBlend mode="normal" in2="effect1_backgroundBlur_16_109" result="effect2_dropShadow_16_109"/>
<feBlend mode="normal" in="SourceGraphic" in2="effect2_dropShadow_16_109" result="shape"/>
</filter>
<linearGradient id="paint0_linear_16_109" x1="60" y1="19.0597" x2="60" y2="68.403" gradientUnits="userSpaceOnUse">
<stop stop-color="#09E0A4"/>
<stop offset="1" stop-color="#009269"/>
</linearGradient>
<linearGradient id="paint1_linear_16_109" x1="60.4329" y1="23.3881" x2="60.4329" y2="64.9403" gradientUnits="userSpaceOnUse">
<stop stop-color="#00FFB8"/>
<stop offset="1" stop-color="#0E4636"/>
</linearGradient>
<linearGradient id="paint2_linear_16_109" x1="60.4329" y1="23.3881" x2="60.4329" y2="64.9403" gradientUnits="userSpaceOnUse">
<stop stop-color="white"/>
<stop offset="1" stop-color="#666666"/>
</linearGradient>
<linearGradient id="paint3_linear_16_109" x1="60" y1="46.7612" x2="60" y2="52.8209" gradientUnits="userSpaceOnUse">
<stop stop-color="#C2C2C2"/>
<stop offset="1" stop-color="#5C5C5C"/>
</linearGradient>
<linearGradient id="paint4_linear_16_109" x1="67.4735" y1="49.3684" x2="60.5506" y2="30.9895" gradientUnits="userSpaceOnUse">
<stop stop-color="white"/>
<stop offset="1" stop-opacity="0.35"/>
</linearGradient>
<linearGradient id="paint5_linear_16_109" x1="22.85" y1="83.7" x2="46.5416" y2="32.5017" gradientUnits="userSpaceOnUse">
<stop stop-color="white" stop-opacity="0.2"/>
<stop offset="1" stop-color="white" stop-opacity="0.5"/>
</linearGradient>
<linearGradient id="paint6_linear_16_109" x1="86.9" y1="83.7" x2="70.8143" y2="40.2917" gradientUnits="userSpaceOnUse">
<stop stop-color="white" stop-opacity="0"/>
<stop offset="1" stop-color="white"/>
</linearGradient>
</defs>
</svg>
