<svg width="119" height="114" viewBox="0 0 119 114" fill="none" xmlns="http://www.w3.org/2000/svg">
<g filter="url(#filter0_f_16_131)">
<rect x="47" y="46.9403" width="25" height="20" fill="#00FFB7"/>
</g>
<circle cx="59.6716" cy="43.6716" r="24.6716" fill="url(#paint0_linear_16_131)"/>
<g filter="url(#filter1_d_16_131)">
<circle cx="59.7761" cy="44.1045" r="20.7761" fill="url(#paint1_linear_16_131)"/>
<circle cx="59.7761" cy="44.1045" r="20.2761" stroke="url(#paint2_linear_16_131)"/>
</g>
<g filter="url(#filter2_di_16_131)">
<path d="M53 47.0844H55.7655C55.7655 48.442 57.6598 49.5985 59.9137 49.5985C62.1676 49.5985 64.0619 48.442 64.0619 47.0844C64.0619 45.7017 62.6239 45.1989 59.5818 44.5326C56.6504 43.8664 53 43.0368 53 39.5422C53 37.2921 55.0326 35.3814 57.8396 34.7403V32H61.9878V34.7403C64.7948 35.3814 66.8274 37.2921 66.8274 39.5422H64.0619C64.0619 38.1846 62.1676 37.0281 59.9137 37.0281C57.6598 37.0281 55.7655 38.1846 55.7655 39.5422C55.7655 40.9249 57.2035 41.4278 60.2455 42.094C63.177 42.7602 66.8274 43.5899 66.8274 47.0844C66.8274 49.3345 64.7948 51.2452 61.9878 51.8863V54.6266H57.8396V51.8863C55.0326 51.2452 53 49.3345 53 47.0844Z" fill="url(#paint3_linear_16_131)" shape-rendering="crispEdges"/>
</g>
<defs>
<filter id="filter0_f_16_131" x="0.100029" y="0.0403061" width="118.8" height="113.8" filterUnits="userSpaceOnUse" color-interpolation-filters="sRGB">
<feFlood flood-opacity="0" result="BackgroundImageFix"/>
<feBlend mode="normal" in="SourceGraphic" in2="BackgroundImageFix" result="shape"/>
<feGaussianBlur stdDeviation="23.45" result="effect1_foregroundBlur_16_131"/>
</filter>
<filter id="filter1_d_16_131" x="36.5" y="20.8284" width="46.5522" height="46.5522" filterUnits="userSpaceOnUse" color-interpolation-filters="sRGB">
<feFlood flood-opacity="0" result="BackgroundImageFix"/>
<feColorMatrix in="SourceAlpha" type="matrix" values="0 0 0 0 0 0 0 0 0 0 0 0 0 0 0 0 0 0 127 0" result="hardAlpha"/>
<feOffset/>
<feGaussianBlur stdDeviation="1.25"/>
<feComposite in2="hardAlpha" operator="out"/>
<feColorMatrix type="matrix" values="0 0 0 0 0 0 0 0 0 0 0 0 0 0 0 0 0 0 0.46 0"/>
<feBlend mode="normal" in2="BackgroundImageFix" result="effect1_dropShadow_16_131"/>
<feBlend mode="normal" in="SourceGraphic" in2="effect1_dropShadow_16_131" result="shape"/>
</filter>
<filter id="filter2_di_16_131" x="51.5" y="31.5" width="16.8274" height="27.1266" filterUnits="userSpaceOnUse" color-interpolation-filters="sRGB">
<feFlood flood-opacity="0" result="BackgroundImageFix"/>
<feColorMatrix in="SourceAlpha" type="matrix" values="0 0 0 0 0 0 0 0 0 0 0 0 0 0 0 0 0 0 127 0" result="hardAlpha"/>
<feOffset dy="1"/>
<feGaussianBlur stdDeviation="0.75"/>
<feComposite in2="hardAlpha" operator="out"/>
<feColorMatrix type="matrix" values="0 0 0 0 0 0 0 0 0 0 0 0 0 0 0 0 0 0 0.25 0"/>
<feBlend mode="normal" in2="BackgroundImageFix" result="effect1_dropShadow_16_131"/>
<feBlend mode="normal" in="SourceGraphic" in2="effect1_dropShadow_16_131" result="shape"/>
<feColorMatrix in="SourceAlpha" type="matrix" values="0 0 0 0 0 0 0 0 0 0 0 0 0 0 0 0 0 0 127 0" result="hardAlpha"/>
<feOffset dy="8"/>
<feGaussianBlur stdDeviation="2"/>
<feComposite in2="hardAlpha" operator="arithmetic" k2="-1" k3="1"/>
<feColorMatrix type="matrix" values="0 0 0 0 1 0 0 0 0 1 0 0 0 0 1 0 0 0 0.25 0"/>
<feBlend mode="normal" in2="shape" result="effect2_innerShadow_16_131"/>
</filter>
<linearGradient id="paint0_linear_16_131" x1="59.6716" y1="19" x2="59.6716" y2="68.3433" gradientUnits="userSpaceOnUse">
<stop stop-color="#08DBA0"/>
<stop offset="1" stop-color="#037555"/>
</linearGradient>
<linearGradient id="paint1_linear_16_131" x1="59.7761" y1="23.3284" x2="59.7761" y2="64.8806" gradientUnits="userSpaceOnUse">
<stop stop-color="#42C09D"/>
<stop offset="1" stop-color="#848484"/>
</linearGradient>
<linearGradient id="paint2_linear_16_131" x1="59.7761" y1="23.3284" x2="59.7761" y2="64.8806" gradientUnits="userSpaceOnUse">
<stop stop-color="#1DFFC0"/>
<stop offset="1" stop-color="#666666"/>
</linearGradient>
<linearGradient id="paint3_linear_16_131" x1="57.8396" y1="56.2428" x2="68.2011" y2="28.4362" gradientUnits="userSpaceOnUse">
<stop stop-color="white" stop-opacity="0.6"/>
<stop offset="1" stop-color="white" stop-opacity="0.5"/>
</linearGradient>
</defs>
</svg>
