<svg width="87" height="97" viewBox="0 0 87 97" fill="none" xmlns="http://www.w3.org/2000/svg">
<g filter="url(#filter0_f_16_68)">
<rect x="14.7826" y="14.3913" width="57.6522" height="57.6522" rx="0.5" fill="url(#paint0_linear_16_68)"/>
</g>
<path d="M19.8696 18.2826C19.8696 18.0065 19.6456 17.7817 19.3697 17.7916C17.9816 17.8418 16.6132 18.1005 15.3273 18.557C13.8872 19.0683 12.5787 19.8177 11.4765 20.7625C10.3743 21.7072 9.50002 22.8288 8.90352 24.0631C8.30701 25.2975 8 26.6205 8 27.9565C8 29.2926 8.30702 30.6156 8.90352 31.8499C9.50002 33.0843 10.3743 34.2058 11.4765 35.1506C12.5787 36.0953 13.8872 36.8447 15.3273 37.356C16.6132 37.8125 17.9816 38.0713 19.3697 38.1214C19.6456 38.1314 19.8696 37.9066 19.8696 37.6304L19.8696 33.5435C19.8696 33.2673 19.6454 33.0454 19.37 33.0254C18.7618 32.9814 18.1642 32.8571 17.5984 32.6563C16.8784 32.4006 16.2241 32.0259 15.673 31.5535C15.1219 31.0812 14.6848 30.5204 14.3865 29.9032C14.0883 29.286 13.9348 28.6245 13.9348 27.9565C13.9348 27.2885 14.0883 26.627 14.3865 26.0098C14.6848 25.3926 15.1219 24.8319 15.673 24.3595C16.2241 23.8871 16.8784 23.5124 17.5984 23.2568C18.1642 23.0559 18.7618 22.9317 19.37 22.8876C19.6454 22.8677 19.8696 22.6457 19.8696 22.3696L19.8696 18.2826Z" fill="url(#paint1_linear_16_68)"/>
<path d="M70.7391 37.6304C70.7391 37.9066 70.9631 38.1314 71.239 38.1214C72.6271 38.0713 73.9955 37.8126 75.2814 37.356C76.7215 36.8447 78.03 36.0953 79.1322 35.1506C80.2344 34.2058 81.1087 33.0843 81.7052 31.8499C82.3017 30.6156 82.6087 29.2926 82.6087 27.9565C82.6087 26.6205 82.3017 25.2975 81.7052 24.0631C81.1087 22.8288 80.2344 21.7072 79.1322 20.7625C78.03 19.8178 76.7215 19.0684 75.2814 18.5571C73.9955 18.1005 72.6271 17.8418 71.239 17.7916C70.9631 17.7817 70.7391 18.0065 70.7391 18.2826L70.7391 22.3696C70.7391 22.6457 70.9633 22.8677 71.2387 22.8876C71.8469 22.9317 72.4445 23.0559 73.0103 23.2568C73.7303 23.5124 74.3846 23.8871 74.9357 24.3595C75.4868 24.8319 75.9239 25.3927 76.2222 26.0098C76.5204 26.627 76.6739 27.2885 76.6739 27.9565C76.6739 28.6246 76.5204 29.2861 76.2222 29.9032C75.9239 30.5204 75.4868 31.0812 74.9357 31.5536C74.3846 32.0259 73.7303 32.4006 73.0103 32.6563C72.4445 32.8571 71.8469 32.9814 71.2387 33.0254C70.9633 33.0454 70.7391 33.2673 70.7391 33.5435L70.7391 37.6304Z" fill="url(#paint2_linear_16_68)"/>
<rect x="38.5217" y="48.3044" width="13.5652" height="37.3043" rx="0.5" fill="url(#paint3_linear_16_68)"/>
<g filter="url(#filter1_bd_16_68)">
<rect x="28.3478" y="78.8261" width="33.913" height="10.1739" rx="5.08696" fill="url(#paint4_linear_16_68)" shape-rendering="crispEdges"/>
<rect x="28.5478" y="79.0261" width="33.513" height="9.77391" rx="4.88696" stroke="url(#paint5_linear_16_68)" stroke-width="0.4" shape-rendering="crispEdges"/>
</g>
<g filter="url(#filter2_bd_16_68)">
<path d="M18.1739 13C18.1739 11.8954 19.0694 11 20.1739 11H70.4348C71.5394 11 72.4348 11.8954 72.4348 13V60.0435C72.4348 66.6709 67.0622 72.0435 60.4348 72.0435H30.1739C23.5465 72.0435 18.1739 66.6709 18.1739 60.0435V13Z" fill="url(#paint6_linear_16_68)" shape-rendering="crispEdges"/>
<path d="M18.5239 13C18.5239 12.0887 19.2627 11.35 20.1739 11.35H70.4348C71.3461 11.35 72.0848 12.0887 72.0848 13V60.0435C72.0848 66.4776 66.8689 71.6935 60.4348 71.6935H30.1739C23.7398 71.6935 18.5239 66.4776 18.5239 60.0435V13Z" stroke="url(#paint7_linear_16_68)" stroke-width="0.7" shape-rendering="crispEdges"/>
</g>
<g filter="url(#filter3_di_16_68)">
<path d="M44.9239 22.3447C45.0437 21.9762 45.565 21.9762 45.6848 22.3447L49.0215 32.6142C49.0751 32.779 49.2287 32.8906 49.402 32.8906L60.1999 32.8906C60.5874 32.8906 60.7485 33.3864 60.435 33.6142L51.6993 39.9611C51.5591 40.0629 51.5004 40.2435 51.554 40.4083L54.8907 50.6777C55.0105 51.0463 54.5887 51.3527 54.2752 51.125L45.5395 44.7781C45.3993 44.6762 45.2094 44.6762 45.0692 44.7781L36.3335 51.125C36.02 51.3527 35.5982 51.0463 35.718 50.6777L39.0547 40.4083C39.1083 40.2435 39.0496 40.0629 38.9094 39.9611L30.1737 33.6142C29.8602 33.3864 30.0213 32.8906 30.4088 32.8906L41.2068 32.8906C41.3801 32.8906 41.5336 32.779 41.5872 32.6142L44.9239 22.3447Z" fill="url(#paint8_linear_16_68)" shape-rendering="crispEdges"/>
</g>
<defs>
<filter id="filter0_f_16_68" x="0.782623" y="0.391296" width="85.6522" height="85.6522" filterUnits="userSpaceOnUse" color-interpolation-filters="sRGB">
<feFlood flood-opacity="0" result="BackgroundImageFix"/>
<feBlend mode="normal" in="SourceGraphic" in2="BackgroundImageFix" result="shape"/>
<feGaussianBlur stdDeviation="7" result="effect1_foregroundBlur_16_68"/>
</filter>
<filter id="filter1_bd_16_68" x="24.3478" y="74.8261" width="41.9131" height="22.1739" filterUnits="userSpaceOnUse" color-interpolation-filters="sRGB">
<feFlood flood-opacity="0" result="BackgroundImageFix"/>
<feGaussianBlur in="BackgroundImageFix" stdDeviation="2"/>
<feComposite in2="SourceAlpha" operator="in" result="effect1_backgroundBlur_16_68"/>
<feColorMatrix in="SourceAlpha" type="matrix" values="0 0 0 0 0 0 0 0 0 0 0 0 0 0 0 0 0 0 127 0" result="hardAlpha"/>
<feOffset dy="4"/>
<feGaussianBlur stdDeviation="2"/>
<feComposite in2="hardAlpha" operator="out"/>
<feColorMatrix type="matrix" values="0 0 0 0 0 0 0 0 0 0 0 0 0 0 0 0 0 0 0.25 0"/>
<feBlend mode="normal" in2="effect1_backgroundBlur_16_68" result="effect2_dropShadow_16_68"/>
<feBlend mode="normal" in="SourceGraphic" in2="effect2_dropShadow_16_68" result="shape"/>
</filter>
<filter id="filter2_bd_16_68" x="14.1739" y="7" width="62.2609" height="73.0435" filterUnits="userSpaceOnUse" color-interpolation-filters="sRGB">
<feFlood flood-opacity="0" result="BackgroundImageFix"/>
<feGaussianBlur in="BackgroundImageFix" stdDeviation="2"/>
<feComposite in2="SourceAlpha" operator="in" result="effect1_backgroundBlur_16_68"/>
<feColorMatrix in="SourceAlpha" type="matrix" values="0 0 0 0 0 0 0 0 0 0 0 0 0 0 0 0 0 0 127 0" result="hardAlpha"/>
<feOffset dy="4"/>
<feGaussianBlur stdDeviation="2"/>
<feComposite in2="hardAlpha" operator="out"/>
<feColorMatrix type="matrix" values="0 0 0 0 0 0 0 0 0 0 0 0 0 0 0 0 0 0 0.25 0"/>
<feBlend mode="normal" in2="effect1_backgroundBlur_16_68" result="effect2_dropShadow_16_68"/>
<feBlend mode="normal" in="SourceGraphic" in2="effect2_dropShadow_16_68" result="shape"/>
</filter>
<filter id="filter3_di_16_68" x="25.3081" y="18.3684" width="39.9926" height="38.5348" filterUnits="userSpaceOnUse" color-interpolation-filters="sRGB">
<feFlood flood-opacity="0" result="BackgroundImageFix"/>
<feColorMatrix in="SourceAlpha" type="matrix" values="0 0 0 0 0 0 0 0 0 0 0 0 0 0 0 0 0 0 127 0" result="hardAlpha"/>
<feOffset dy="1"/>
<feGaussianBlur stdDeviation="2.35"/>
<feComposite in2="hardAlpha" operator="out"/>
<feColorMatrix type="matrix" values="0 0 0 0 0 0 0 0 0 0 0 0 0 0 0 0 0 0 0.25 0"/>
<feBlend mode="normal" in2="BackgroundImageFix" result="effect1_dropShadow_16_68"/>
<feBlend mode="normal" in="SourceGraphic" in2="effect1_dropShadow_16_68" result="shape"/>
<feColorMatrix in="SourceAlpha" type="matrix" values="0 0 0 0 0 0 0 0 0 0 0 0 0 0 0 0 0 0 127 0" result="hardAlpha"/>
<feOffset dy="8"/>
<feGaussianBlur stdDeviation="2"/>
<feComposite in2="hardAlpha" operator="arithmetic" k2="-1" k3="1"/>
<feColorMatrix type="matrix" values="0 0 0 0 1 0 0 0 0 1 0 0 0 0 1 0 0 0 0.25 0"/>
<feBlend mode="normal" in2="shape" result="effect2_innerShadow_16_68"/>
</filter>
<linearGradient id="paint0_linear_16_68" x1="14.7826" y1="14.3913" x2="72.4348" y2="72.0435" gradientUnits="userSpaceOnUse">
<stop offset="0.22" stop-color="#0DC793"/>
<stop offset="0.7" stop-color="#149375"/>
</linearGradient>
<linearGradient id="paint1_linear_16_68" x1="8" y1="38.1304" x2="28.1084" y2="14.6706" gradientUnits="userSpaceOnUse">
<stop offset="0.22" stop-color="#575757"/>
<stop offset="0.7" stop-color="white"/>
</linearGradient>
<linearGradient id="paint2_linear_16_68" x1="82.6087" y1="17.7826" x2="62.5003" y2="41.2425" gradientUnits="userSpaceOnUse">
<stop offset="0.22" stop-color="#444444"/>
<stop offset="0.7" stop-color="white"/>
</linearGradient>
<linearGradient id="paint3_linear_16_68" x1="38.5217" y1="48.3044" x2="62.4836" y2="57.0178" gradientUnits="userSpaceOnUse">
<stop offset="0.22" stop-color="#149475"/>
<stop offset="0.7" stop-color="#00FFB7"/>
</linearGradient>
<linearGradient id="paint4_linear_16_68" x1="23.2609" y1="90.0174" x2="29.9493" y2="68.692" gradientUnits="userSpaceOnUse">
<stop stop-color="white" stop-opacity="0.2"/>
<stop offset="1" stop-color="white" stop-opacity="0.5"/>
</linearGradient>
<linearGradient id="paint5_linear_16_68" x1="58.8696" y1="90.0174" x2="54.4745" y2="72.5184" gradientUnits="userSpaceOnUse">
<stop stop-color="white" stop-opacity="0"/>
<stop offset="1" stop-color="white"/>
</linearGradient>
<linearGradient id="paint6_linear_16_68" x1="28.7246" y1="77.1304" x2="79.2653" y2="16.714" gradientUnits="userSpaceOnUse">
<stop stop-color="white" stop-opacity="0.2"/>
<stop offset="1" stop-color="white" stop-opacity="0.5"/>
</linearGradient>
<linearGradient id="paint7_linear_16_68" x1="67.0087" y1="78.1478" x2="11.3" y2="19.0003" gradientUnits="userSpaceOnUse">
<stop stop-color="white" stop-opacity="0"/>
<stop offset="1" stop-color="white"/>
</linearGradient>
<linearGradient id="paint8_linear_16_68" x1="23.2609" y1="58.4783" x2="62.2609" y2="21.1739" gradientUnits="userSpaceOnUse">
<stop stop-color="white" stop-opacity="0.2"/>
<stop offset="1" stop-color="white" stop-opacity="0.5"/>
</linearGradient>
</defs>
</svg>
