<svg width="80" height="78" viewBox="0 0 80 78" fill="none" xmlns="http://www.w3.org/2000/svg">
<g filter="url(#filter0_f_26_47)">
<rect x="28" y="29" width="24" height="16" fill="#00FFB8"/>
</g>
<g filter="url(#filter1_di_26_47)">
<path d="M55.0913 53.9624C58.872 50.8668 61.6795 46.7925 63.1906 42.2086C64.7017 37.6247 64.8549 32.7176 63.6325 28.0525C62.4102 23.3874 59.862 19.154 56.2814 15.8397C52.7009 12.5254 48.2335 10.2651 43.3938 9.319C38.5542 8.37293 33.539 8.77958 28.9258 10.4921C24.3127 12.2047 20.2892 15.1535 17.3186 18.999C14.3481 22.8444 12.5514 27.4302 12.1353 32.2281C11.7192 37.0261 12.7008 41.8411 14.9669 46.1188L20.4307 43.3642C18.6965 40.0906 17.9453 36.4057 18.2637 32.7339C18.5821 29.0621 19.9572 25.5527 22.2305 22.6098C24.5038 19.6669 27.5829 17.4102 31.1133 16.0996C34.6437 14.7891 38.4817 14.4779 42.1854 15.2019C45.8892 15.9259 49.3079 17.6557 52.0481 20.192C54.7883 22.7284 56.7384 25.9682 57.6738 29.5384C58.6092 33.1085 58.492 36.8638 57.3356 40.3718C56.1792 43.8798 54.0306 46.9978 51.1373 49.3668L55.0913 53.9624Z" fill="url(#paint0_linear_26_47)"/>
</g>
<g filter="url(#filter2_bd_26_47)">
<path d="M44.8808 53.4484L37.4553 59.2368C37.3674 59.3053 37.2593 59.3425 37.1479 59.3425H27.6733C27.3972 59.3425 27.1733 59.1186 27.1733 58.8425V57.8646C27.1733 57.5885 27.3972 57.3646 27.6733 57.3646H35.4224C35.6059 57.3645 35.786 57.3159 35.9434 57.2239C36.1008 57.132 36.2297 57.0001 36.3163 56.8424C36.403 56.6847 36.4441 56.5071 36.4353 56.3284C36.4266 56.1497 36.3682 55.9767 36.2666 55.8278L34.4646 53.1933C34.0949 52.651 33.5933 52.2063 33.0044 51.8988C32.4156 51.5913 31.7579 51.4306 31.0899 51.431H14.9977C14.4595 51.431 13.9433 51.6394 13.5627 52.0103C13.1822 52.3813 12.9684 52.8843 12.9684 53.4089V65.276C12.9684 66.3251 13.396 67.3313 14.1571 68.0731C14.9182 68.815 15.9505 69.2317 17.0269 69.2317H36.5872C37.4549 69.2319 38.3127 69.0513 39.1029 68.702C39.8932 68.3527 40.5977 67.8428 41.1693 67.2064L53.0405 53.9809C53.2821 53.7118 53.1669 53.2831 52.8229 53.1714L50.6075 52.4516C49.6435 52.1384 48.6143 52.0656 47.614 52.2397C46.6137 52.4138 45.674 52.8294 44.8808 53.4484Z" fill="url(#paint1_linear_26_47)" shape-rendering="crispEdges"/>
<path d="M45.096 53.7245L45.0962 53.7244C45.8436 53.141 46.7298 52.7489 47.674 52.5845C48.6183 52.4201 49.5897 52.4889 50.4993 52.7845L52.7148 53.5043C52.818 53.5378 52.8526 53.6664 52.7801 53.7471L40.9089 66.9725C40.9089 66.9726 40.9088 66.9726 40.9088 66.9726C40.3707 67.5717 39.7069 68.0524 38.9614 68.3819C38.216 68.7114 37.4065 68.8819 36.5873 68.8817H36.5872H17.0269C16.0405 68.8817 15.0962 68.4997 14.4014 67.8225C13.7069 67.1456 13.3184 66.2294 13.3184 65.276V53.4089C13.3184 52.9801 13.4931 52.567 13.807 52.261C14.1213 51.9547 14.5494 51.781 14.9977 51.781L31.0899 51.781L31.0901 51.781C31.7019 51.7806 32.304 51.9278 32.8424 52.209C33.3808 52.4902 33.8385 52.8963 34.1753 53.3904L34.1757 53.3909L35.9775 56.0252C35.9775 56.0252 35.9775 56.0252 35.9776 56.0252C36.0431 56.1213 36.0802 56.232 36.0857 56.3456C36.0913 56.4592 36.0652 56.5726 36.0096 56.6739L36.3163 56.8424L36.0096 56.6739C35.9539 56.7753 35.8704 56.8613 35.7669 56.9217C35.6633 56.9822 35.5442 57.0145 35.4222 57.0146H27.6733C27.2039 57.0146 26.8233 57.3952 26.8233 57.8646V58.8425C26.8233 59.3119 27.2039 59.6925 27.6733 59.6925H37.1479C37.3372 59.6925 37.5211 59.6292 37.6705 59.5128L45.096 53.7245Z" stroke="url(#paint2_linear_26_47)" stroke-width="0.7" shape-rendering="crispEdges"/>
</g>
<g filter="url(#filter3_d_26_47)">
<path d="M11.579 43.5122L22.9456 38.8913L20.3486 49.1502L11.579 43.5122Z" fill="url(#paint3_linear_26_47)"/>
</g>
<g filter="url(#filter4_di_26_47)">
<path d="M27.921 40.2759H31.6235C31.6235 42.0275 34.1598 43.5196 37.1774 43.5196C40.1949 43.5196 42.7312 42.0275 42.7312 40.2759C42.7312 38.4919 40.8059 37.8432 36.733 36.9836C32.8084 36.124 27.921 35.0536 27.921 30.5449C27.921 27.6418 30.6424 25.1766 34.4004 24.3495V20.8138H39.9543V24.3495C43.7123 25.1766 46.4337 27.6418 46.4337 30.5449H42.7312C42.7312 28.7933 40.1949 27.3012 37.1774 27.3012C34.1598 27.3012 31.6235 28.7933 31.6235 30.5449C31.6235 32.3289 33.5489 32.9777 37.6217 33.8372C41.5464 34.6968 46.4337 35.7672 46.4337 40.2759C46.4337 43.179 43.7123 45.6442 39.9543 46.4714V50.007H34.4004V46.4714C30.6424 45.6442 27.921 43.179 27.921 40.2759Z" fill="#7EFFDB"/>
</g>
<defs>
<filter id="filter0_f_26_47" x="0.9" y="1.9" width="78.2" height="70.2" filterUnits="userSpaceOnUse" color-interpolation-filters="sRGB">
<feFlood flood-opacity="0" result="BackgroundImageFix"/>
<feBlend mode="normal" in="SourceGraphic" in2="BackgroundImageFix" result="shape"/>
<feGaussianBlur stdDeviation="13.55" result="effect1_foregroundBlur_26_47"/>
</filter>
<filter id="filter1_di_26_47" x="4.74202" y="1.52068" width="67.0067" height="59.7417" filterUnits="userSpaceOnUse" color-interpolation-filters="sRGB">
<feFlood flood-opacity="0" result="BackgroundImageFix"/>
<feColorMatrix in="SourceAlpha" type="matrix" values="0 0 0 0 0 0 0 0 0 0 0 0 0 0 0 0 0 0 127 0" result="hardAlpha"/>
<feOffset/>
<feGaussianBlur stdDeviation="3.65"/>
<feComposite in2="hardAlpha" operator="out"/>
<feColorMatrix type="matrix" values="0 0 0 0 0 0 0 0 0 0 0 0 0 0 0 0 0 0 0.25 0"/>
<feBlend mode="normal" in2="BackgroundImageFix" result="effect1_dropShadow_26_47"/>
<feBlend mode="normal" in="SourceGraphic" in2="effect1_dropShadow_26_47" result="shape"/>
<feColorMatrix in="SourceAlpha" type="matrix" values="0 0 0 0 0 0 0 0 0 0 0 0 0 0 0 0 0 0 127 0" result="hardAlpha"/>
<feOffset/>
<feGaussianBlur stdDeviation="1.1"/>
<feComposite in2="hardAlpha" operator="arithmetic" k2="-1" k3="1"/>
<feColorMatrix type="matrix" values="0 0 0 0 0 0 0 0 0 0 0 0 0 0 0 0 0 0 0.25 0"/>
<feBlend mode="normal" in2="shape" result="effect2_innerShadow_26_47"/>
</filter>
<filter id="filter2_bd_26_47" x="8.96838" y="47.431" width="48.2003" height="29.8007" filterUnits="userSpaceOnUse" color-interpolation-filters="sRGB">
<feFlood flood-opacity="0" result="BackgroundImageFix"/>
<feGaussianBlur in="BackgroundImageFix" stdDeviation="2"/>
<feComposite in2="SourceAlpha" operator="in" result="effect1_backgroundBlur_26_47"/>
<feColorMatrix in="SourceAlpha" type="matrix" values="0 0 0 0 0 0 0 0 0 0 0 0 0 0 0 0 0 0 127 0" result="hardAlpha"/>
<feOffset dy="4"/>
<feGaussianBlur stdDeviation="2"/>
<feComposite in2="hardAlpha" operator="out"/>
<feColorMatrix type="matrix" values="0 0 0 0 0 0 0 0 0 0 0 0 0 0 0 0 0 0 0.25 0"/>
<feBlend mode="normal" in2="effect1_backgroundBlur_26_47" result="effect2_dropShadow_26_47"/>
<feBlend mode="normal" in="SourceGraphic" in2="effect2_dropShadow_26_47" result="shape"/>
</filter>
<filter id="filter3_d_26_47" x="6.67898" y="35.9914" width="21.1666" height="20.0589" filterUnits="userSpaceOnUse" color-interpolation-filters="sRGB">
<feFlood flood-opacity="0" result="BackgroundImageFix"/>
<feColorMatrix in="SourceAlpha" type="matrix" values="0 0 0 0 0 0 0 0 0 0 0 0 0 0 0 0 0 0 127 0" result="hardAlpha"/>
<feOffset dy="2"/>
<feGaussianBlur stdDeviation="2.45"/>
<feComposite in2="hardAlpha" operator="out"/>
<feColorMatrix type="matrix" values="0 0 0 0 0 0 0 0 0 0 0 0 0 0 0 0 0 0 0.98 0"/>
<feBlend mode="normal" in2="BackgroundImageFix" result="effect1_dropShadow_26_47"/>
<feBlend mode="normal" in="SourceGraphic" in2="effect1_dropShadow_26_47" result="shape"/>
</filter>
<filter id="filter4_di_26_47" x="26.421" y="20.3138" width="21.5127" height="33.6931" filterUnits="userSpaceOnUse" color-interpolation-filters="sRGB">
<feFlood flood-opacity="0" result="BackgroundImageFix"/>
<feColorMatrix in="SourceAlpha" type="matrix" values="0 0 0 0 0 0 0 0 0 0 0 0 0 0 0 0 0 0 127 0" result="hardAlpha"/>
<feOffset dy="1"/>
<feGaussianBlur stdDeviation="0.75"/>
<feComposite in2="hardAlpha" operator="out"/>
<feColorMatrix type="matrix" values="0 0 0 0 0 0 0 0 0 0 0 0 0 0 0 0 0 0 0.25 0"/>
<feBlend mode="normal" in2="BackgroundImageFix" result="effect1_dropShadow_26_47"/>
<feBlend mode="normal" in="SourceGraphic" in2="effect1_dropShadow_26_47" result="shape"/>
<feColorMatrix in="SourceAlpha" type="matrix" values="0 0 0 0 0 0 0 0 0 0 0 0 0 0 0 0 0 0 127 0" result="hardAlpha"/>
<feOffset dy="8"/>
<feGaussianBlur stdDeviation="2"/>
<feComposite in2="hardAlpha" operator="arithmetic" k2="-1" k3="1"/>
<feColorMatrix type="matrix" values="0 0 0 0 1 0 0 0 0 1 0 0 0 0 1 0 0 0 0.25 0"/>
<feBlend mode="normal" in2="shape" result="effect2_innerShadow_26_47"/>
</filter>
<linearGradient id="paint0_linear_26_47" x1="50.1454" y1="11.6088" x2="27.2678" y2="57.6157" gradientUnits="userSpaceOnUse">
<stop stop-color="#00FFB8"/>
<stop offset="1" stop-color="#8AFFDE"/>
</linearGradient>
<linearGradient id="paint1_linear_26_47" x1="6.88054" y1="71.0118" x2="22.4076" y2="37.1494" gradientUnits="userSpaceOnUse">
<stop stop-color="white" stop-opacity="0.2"/>
<stop offset="1" stop-color="white" stop-opacity="0.5"/>
</linearGradient>
<linearGradient id="paint2_linear_26_47" x1="49.4954" y1="71.0118" x2="38.9638" y2="42.3306" gradientUnits="userSpaceOnUse">
<stop stop-color="white" stop-opacity="0"/>
<stop offset="1" stop-color="white"/>
</linearGradient>
<linearGradient id="paint3_linear_26_47" x1="17.2623" y1="41.2018" x2="20.473" y2="49.0996" gradientUnits="userSpaceOnUse">
<stop stop-color="#5CFFD1"/>
<stop offset="1" stop-color="#37997E"/>
</linearGradient>
</defs>
</svg>
