<svg width="102" height="91" viewBox="0 0 102 91" fill="none" xmlns="http://www.w3.org/2000/svg">
<g filter="url(#filter0_f_16_87)">
<rect x="67.281" y="34.0594" width="22.6264" height="32.6825" transform="rotate(90 67.281 34.0594)" fill="url(#paint0_linear_16_87)"/>
</g>
<rect x="23.2851" y="29.028" width="55.3089" height="32.6825" fill="url(#paint1_linear_16_87)"/>
<g filter="url(#filter1_bd_16_87)">
<path d="M17 41.0985C17 41.3746 17.2239 41.5992 17.4999 41.5914C19.6406 41.5305 21.7536 41.0795 23.7346 40.2589C25.8698 39.3745 27.8098 38.0782 29.444 36.444C31.0782 34.8098 32.3745 32.8698 33.2589 30.7346C34.0795 28.7536 34.5305 26.6406 34.5914 24.4999C34.5992 24.2239 34.3746 24 34.0985 24L17.5 24C17.2239 24 17 24.2239 17 24.5L17 41.0985Z" fill="url(#paint2_linear_16_87)" shape-rendering="crispEdges"/>
<path d="M17.49 41.2415C17.4176 41.2436 17.35 41.184 17.35 41.0985L17.35 24.5C17.35 24.4172 17.4172 24.35 17.5 24.35L34.0985 24.35C34.184 24.35 34.2436 24.4176 34.2415 24.49C34.1819 26.5881 33.7398 28.659 32.9355 30.6007C32.0687 32.6934 30.7982 34.5948 29.1965 36.1965C27.5948 37.7982 25.6934 39.0687 23.6007 39.9355C21.659 40.7398 19.5881 41.1819 17.49 41.2415Z" stroke="url(#paint3_linear_16_87)" stroke-width="0.7" shape-rendering="crispEdges"/>
</g>
<g filter="url(#filter2_bd_16_87)">
<path d="M34.0985 67.9997C34.3746 67.9997 34.5992 67.7757 34.5914 67.4997C34.5305 65.3591 34.0795 63.2461 33.2589 61.265C32.3745 59.1299 31.0782 57.1898 29.444 55.5557C27.8098 53.9215 25.8698 52.6252 23.7346 51.7408C21.7536 50.9202 19.6406 50.4691 17.4999 50.4083C17.2239 50.4004 17 50.625 17 50.9012L17 67.4997C17 67.7758 17.2239 67.9997 17.5 67.9997H34.0985Z" fill="url(#paint4_linear_16_87)" shape-rendering="crispEdges"/>
<path d="M34.2415 67.5097C34.2436 67.5821 34.184 67.6497 34.0985 67.6497H17.5C17.4172 67.6497 17.35 67.5825 17.35 67.4997L17.35 50.9012C17.35 50.8157 17.4176 50.7561 17.49 50.7581C19.5881 50.8178 21.659 51.2599 23.6007 52.0641C25.6934 52.931 27.5948 54.2015 29.1965 55.8031C30.7982 57.4048 32.0687 59.3063 32.9355 61.399C33.7398 63.3406 34.1819 65.4116 34.2415 67.5097Z" stroke="url(#paint5_linear_16_87)" stroke-width="0.7" shape-rendering="crispEdges"/>
</g>
<g filter="url(#filter3_bd_16_87)">
<path d="M83.6221 50.8991C83.6221 50.623 83.3982 50.3984 83.1221 50.4062C80.9815 50.4671 78.8685 50.9182 76.8874 51.7387C74.7523 52.6231 72.8122 53.9194 71.1781 55.5536C69.5439 57.1878 68.2476 59.1278 67.3632 61.263C66.5426 63.244 66.0915 65.3571 66.0307 67.4977C66.0228 67.7737 66.2474 67.9976 66.5236 67.9976L83.1221 67.9976C83.3982 67.9976 83.6221 67.7738 83.6221 67.4976L83.6221 50.8991Z" fill="url(#paint6_linear_16_87)" shape-rendering="crispEdges"/>
<path d="M83.1321 50.7561C83.2045 50.754 83.2721 50.8136 83.2721 50.8991L83.2721 67.4976C83.2721 67.5805 83.2049 67.6476 83.1221 67.6476L66.5236 67.6476C66.4381 67.6476 66.3785 67.58 66.3806 67.5076C66.4402 65.4096 66.8823 63.3386 67.6866 61.3969C68.5534 59.3042 69.8239 57.4028 71.4256 55.8011C73.0272 54.1994 74.9287 52.9289 77.0214 52.0621C78.963 51.2578 81.034 50.8157 83.1321 50.7561Z" stroke="url(#paint7_linear_16_87)" stroke-width="0.7" shape-rendering="crispEdges"/>
</g>
<g filter="url(#filter4_bd_16_87)">
<path d="M66.5236 24.0012C66.2474 24.0012 66.0228 24.2251 66.0307 24.5011C66.0915 26.6418 66.5426 28.7548 67.3632 30.7358C68.2476 32.871 69.5439 34.811 71.1781 36.4452C72.8122 38.0794 74.7523 39.3757 76.8874 40.2601C78.8685 41.0806 80.9815 41.5317 83.1221 41.5926C83.3982 41.6004 83.6221 41.3758 83.6221 41.0997L83.6221 24.5012C83.6221 24.225 83.3982 24.0012 83.1221 24.0012L66.5236 24.0012Z" fill="url(#paint8_linear_16_87)" shape-rendering="crispEdges"/>
<path d="M66.3805 24.4912C66.3785 24.4188 66.4381 24.3512 66.5236 24.3512L83.1221 24.3512C83.2049 24.3512 83.2721 24.4183 83.2721 24.5012L83.2721 41.0997C83.2721 41.1852 83.2045 41.2448 83.1321 41.2427C81.034 41.1831 78.963 40.741 77.0214 39.9367C74.9287 39.0699 73.0272 37.7994 71.4256 36.1977C69.8239 34.596 68.5534 32.6946 67.6865 30.6019C66.8823 28.6602 66.4402 26.5892 66.3805 24.4912Z" stroke="url(#paint9_linear_16_87)" stroke-width="0.7" shape-rendering="crispEdges"/>
</g>
<g filter="url(#filter5_di_16_87)">
<path d="M43.3975 49.1439H46.163C46.163 50.5015 48.0573 51.6579 50.3112 51.6579C52.5651 51.6579 54.4594 50.5015 54.4594 49.1439C54.4594 47.7611 53.0214 47.2583 49.9794 46.5921C47.048 45.9259 43.3975 45.0962 43.3975 41.6017C43.3975 39.3516 45.4301 37.4409 48.2371 36.7998V34.0594H52.3853V36.7998C55.1923 37.4409 57.2249 39.3516 57.2249 41.6017H54.4594C54.4594 40.2441 52.5651 39.0876 50.3112 39.0876C48.0573 39.0876 46.163 40.2441 46.163 41.6017C46.163 42.9844 47.601 43.4872 50.6431 44.1534C53.5745 44.8197 57.2249 45.6493 57.2249 49.1439C57.2249 51.394 55.1923 53.3046 52.3853 53.9457V56.6861H48.2371V53.9457C45.4301 53.3046 43.3975 51.394 43.3975 49.1439Z" fill="url(#paint10_linear_16_87)" shape-rendering="crispEdges"/>
</g>
<defs>
<filter id="filter0_f_16_87" x="0.59845" y="0.0594482" width="100.683" height="90.6263" filterUnits="userSpaceOnUse" color-interpolation-filters="sRGB">
<feFlood flood-opacity="0" result="BackgroundImageFix"/>
<feBlend mode="normal" in="SourceGraphic" in2="BackgroundImageFix" result="shape"/>
<feGaussianBlur stdDeviation="17" result="effect1_foregroundBlur_16_87"/>
</filter>
<filter id="filter1_bd_16_87" x="13" y="20" width="25.5916" height="29.5916" filterUnits="userSpaceOnUse" color-interpolation-filters="sRGB">
<feFlood flood-opacity="0" result="BackgroundImageFix"/>
<feGaussianBlur in="BackgroundImageFix" stdDeviation="2"/>
<feComposite in2="SourceAlpha" operator="in" result="effect1_backgroundBlur_16_87"/>
<feColorMatrix in="SourceAlpha" type="matrix" values="0 0 0 0 0 0 0 0 0 0 0 0 0 0 0 0 0 0 127 0" result="hardAlpha"/>
<feOffset dy="4"/>
<feGaussianBlur stdDeviation="2"/>
<feComposite in2="hardAlpha" operator="out"/>
<feColorMatrix type="matrix" values="0 0 0 0 0 0 0 0 0 0 0 0 0 0 0 0 0 0 0.25 0"/>
<feBlend mode="normal" in2="effect1_backgroundBlur_16_87" result="effect2_dropShadow_16_87"/>
<feBlend mode="normal" in="SourceGraphic" in2="effect2_dropShadow_16_87" result="shape"/>
</filter>
<filter id="filter2_bd_16_87" x="13" y="46.4081" width="25.5916" height="29.5916" filterUnits="userSpaceOnUse" color-interpolation-filters="sRGB">
<feFlood flood-opacity="0" result="BackgroundImageFix"/>
<feGaussianBlur in="BackgroundImageFix" stdDeviation="2"/>
<feComposite in2="SourceAlpha" operator="in" result="effect1_backgroundBlur_16_87"/>
<feColorMatrix in="SourceAlpha" type="matrix" values="0 0 0 0 0 0 0 0 0 0 0 0 0 0 0 0 0 0 127 0" result="hardAlpha"/>
<feOffset dy="4"/>
<feGaussianBlur stdDeviation="2"/>
<feComposite in2="hardAlpha" operator="out"/>
<feColorMatrix type="matrix" values="0 0 0 0 0 0 0 0 0 0 0 0 0 0 0 0 0 0 0.25 0"/>
<feBlend mode="normal" in2="effect1_backgroundBlur_16_87" result="effect2_dropShadow_16_87"/>
<feBlend mode="normal" in="SourceGraphic" in2="effect2_dropShadow_16_87" result="shape"/>
</filter>
<filter id="filter3_bd_16_87" x="62.0305" y="46.4061" width="25.5916" height="29.5916" filterUnits="userSpaceOnUse" color-interpolation-filters="sRGB">
<feFlood flood-opacity="0" result="BackgroundImageFix"/>
<feGaussianBlur in="BackgroundImageFix" stdDeviation="2"/>
<feComposite in2="SourceAlpha" operator="in" result="effect1_backgroundBlur_16_87"/>
<feColorMatrix in="SourceAlpha" type="matrix" values="0 0 0 0 0 0 0 0 0 0 0 0 0 0 0 0 0 0 127 0" result="hardAlpha"/>
<feOffset dy="4"/>
<feGaussianBlur stdDeviation="2"/>
<feComposite in2="hardAlpha" operator="out"/>
<feColorMatrix type="matrix" values="0 0 0 0 0 0 0 0 0 0 0 0 0 0 0 0 0 0 0.25 0"/>
<feBlend mode="normal" in2="effect1_backgroundBlur_16_87" result="effect2_dropShadow_16_87"/>
<feBlend mode="normal" in="SourceGraphic" in2="effect2_dropShadow_16_87" result="shape"/>
</filter>
<filter id="filter4_bd_16_87" x="62.0305" y="20.0012" width="25.5916" height="29.5916" filterUnits="userSpaceOnUse" color-interpolation-filters="sRGB">
<feFlood flood-opacity="0" result="BackgroundImageFix"/>
<feGaussianBlur in="BackgroundImageFix" stdDeviation="2"/>
<feComposite in2="SourceAlpha" operator="in" result="effect1_backgroundBlur_16_87"/>
<feColorMatrix in="SourceAlpha" type="matrix" values="0 0 0 0 0 0 0 0 0 0 0 0 0 0 0 0 0 0 127 0" result="hardAlpha"/>
<feOffset dy="4"/>
<feGaussianBlur stdDeviation="2"/>
<feComposite in2="hardAlpha" operator="out"/>
<feColorMatrix type="matrix" values="0 0 0 0 0 0 0 0 0 0 0 0 0 0 0 0 0 0 0.25 0"/>
<feBlend mode="normal" in2="effect1_backgroundBlur_16_87" result="effect2_dropShadow_16_87"/>
<feBlend mode="normal" in="SourceGraphic" in2="effect2_dropShadow_16_87" result="shape"/>
</filter>
<filter id="filter5_di_16_87" x="41.8975" y="33.5594" width="16.8274" height="27.1266" filterUnits="userSpaceOnUse" color-interpolation-filters="sRGB">
<feFlood flood-opacity="0" result="BackgroundImageFix"/>
<feColorMatrix in="SourceAlpha" type="matrix" values="0 0 0 0 0 0 0 0 0 0 0 0 0 0 0 0 0 0 127 0" result="hardAlpha"/>
<feOffset dy="1"/>
<feGaussianBlur stdDeviation="0.75"/>
<feComposite in2="hardAlpha" operator="out"/>
<feColorMatrix type="matrix" values="0 0 0 0 0 0 0 0 0 0 0 0 0 0 0 0 0 0 0.25 0"/>
<feBlend mode="normal" in2="BackgroundImageFix" result="effect1_dropShadow_16_87"/>
<feBlend mode="normal" in="SourceGraphic" in2="effect1_dropShadow_16_87" result="shape"/>
<feColorMatrix in="SourceAlpha" type="matrix" values="0 0 0 0 0 0 0 0 0 0 0 0 0 0 0 0 0 0 127 0" result="hardAlpha"/>
<feOffset dy="8"/>
<feGaussianBlur stdDeviation="2"/>
<feComposite in2="hardAlpha" operator="arithmetic" k2="-1" k3="1"/>
<feColorMatrix type="matrix" values="0 0 0 0 1 0 0 0 0 1 0 0 0 0 1 0 0 0 0.25 0"/>
<feBlend mode="normal" in2="shape" result="effect2_innerShadow_16_87"/>
</filter>
<linearGradient id="paint0_linear_16_87" x1="78.5942" y1="34.0594" x2="78.5942" y2="66.742" gradientUnits="userSpaceOnUse">
<stop stop-color="#00FFB8"/>
<stop offset="1" stop-color="#00FFB8"/>
</linearGradient>
<linearGradient id="paint1_linear_16_87" x1="50.9395" y1="29.028" x2="50.9395" y2="61.7105" gradientUnits="userSpaceOnUse">
<stop stop-color="#30CCA0"/>
<stop offset="1" stop-color="#00FFB9"/>
</linearGradient>
<linearGradient id="paint2_linear_16_87" x1="15.2402" y1="21.3602" x2="34.5985" y2="41.5985" gradientUnits="userSpaceOnUse">
<stop stop-color="white" stop-opacity="0.2"/>
<stop offset="1" stop-color="white" stop-opacity="0.5"/>
</linearGradient>
<linearGradient id="paint3_linear_16_87" x1="15.2402" y1="39.8386" x2="34.1585" y2="24" gradientUnits="userSpaceOnUse">
<stop stop-color="white" stop-opacity="0"/>
<stop offset="1" stop-color="white"/>
</linearGradient>
<linearGradient id="paint4_linear_16_87" x1="14.3602" y1="69.7595" x2="34.5985" y2="50.4012" gradientUnits="userSpaceOnUse">
<stop stop-color="white" stop-opacity="0.2"/>
<stop offset="1" stop-color="white" stop-opacity="0.5"/>
</linearGradient>
<linearGradient id="paint5_linear_16_87" x1="32.8386" y1="69.7595" x2="17" y2="50.8411" gradientUnits="userSpaceOnUse">
<stop stop-color="white" stop-opacity="0"/>
<stop offset="1" stop-color="white"/>
</linearGradient>
<linearGradient id="paint6_linear_16_87" x1="85.3819" y1="70.6374" x2="66.0236" y2="50.3991" gradientUnits="userSpaceOnUse">
<stop stop-color="white" stop-opacity="0.2"/>
<stop offset="1" stop-color="white" stop-opacity="0.5"/>
</linearGradient>
<linearGradient id="paint7_linear_16_87" x1="85.3819" y1="52.159" x2="66.4635" y2="67.9976" gradientUnits="userSpaceOnUse">
<stop stop-color="white" stop-opacity="0"/>
<stop offset="1" stop-color="white"/>
</linearGradient>
<linearGradient id="paint8_linear_16_87" x1="86.2618" y1="22.2413" x2="66.0236" y2="41.5997" gradientUnits="userSpaceOnUse">
<stop stop-color="white" stop-opacity="0.2"/>
<stop offset="1" stop-color="white" stop-opacity="0.5"/>
</linearGradient>
<linearGradient id="paint9_linear_16_87" x1="67.7834" y1="22.2413" x2="83.6221" y2="41.1597" gradientUnits="userSpaceOnUse">
<stop stop-color="white" stop-opacity="0"/>
<stop offset="1" stop-color="white"/>
</linearGradient>
<linearGradient id="paint10_linear_16_87" x1="48.2371" y1="58.3022" x2="58.5986" y2="30.4956" gradientUnits="userSpaceOnUse">
<stop stop-color="white" stop-opacity="0.2"/>
<stop offset="1" stop-color="white" stop-opacity="0.5"/>
</linearGradient>
</defs>
</svg>
