<svg width="83" height="81" viewBox="0 0 83 81" fill="none" xmlns="http://www.w3.org/2000/svg">
<rect x="14.6" y="14" width="50.4" height="44.8" rx="2" fill="url(#paint0_linear_16_63)"/>
<g filter="url(#filter0_f_16_63)">
<rect x="14" y="14" width="53" height="53" rx="2" fill="url(#paint1_linear_16_63)"/>
</g>
<g filter="url(#filter1_bd_16_63)">
<path d="M64.041 42.6907L51.1357 52.7828C51.0478 52.8515 50.9394 52.8889 50.8277 52.8889H34C33.7239 52.8889 33.5 52.665 33.5 52.3889V49.9667C33.5 49.6905 33.7239 49.4667 34 49.4667H47.7275C48.044 49.4665 48.3546 49.3824 48.6262 49.2233C48.8977 49.0642 49.12 48.8361 49.2694 48.5632C49.4188 48.2903 49.4897 47.983 49.4746 47.6738C49.4595 47.3646 49.3589 47.0653 49.1835 46.8076L46.0755 42.2492C45.4379 41.3109 44.5728 40.5414 43.5572 40.0093C42.5416 39.4773 41.4072 39.1993 40.255 39.2H12.5C11.5717 39.2 10.6815 39.5606 10.0251 40.2024C9.36875 40.8442 9 41.7146 9 42.6222V63.1556C9 64.9708 9.7375 66.7117 11.0503 67.9953C12.363 69.2789 14.1435 70 16 70H49.7365C51.2331 70.0003 52.7125 69.6878 54.0756 69.0835C55.4386 68.4791 56.6537 67.5967 57.6395 66.4957L78.4889 43.1935C78.7297 42.9244 78.6145 42.4966 78.2712 42.3847L73.918 40.9659C72.2553 40.424 70.4803 40.2979 68.755 40.5992C67.0297 40.9005 65.409 41.6195 64.041 42.6907Z" fill="url(#paint2_linear_16_63)" shape-rendering="crispEdges"/>
<path d="M64.2568 42.9663L64.2566 42.9664L51.3513 53.0585L51.1357 52.7828L51.3513 53.0585C51.2018 53.1754 51.0175 53.2389 50.8277 53.2389H34C33.5306 53.2389 33.15 52.8583 33.15 52.3889V49.9667C33.15 49.4972 33.5306 49.1167 34 49.1167H47.7273C47.9821 49.1166 48.2316 49.0488 48.4492 48.9213C48.6667 48.7939 48.8438 48.6117 48.9624 48.3951C49.081 48.1786 49.137 47.9352 49.125 47.6909C49.1131 47.4467 49.0336 47.2095 48.8943 47.0048L64.2568 42.9663ZM64.2568 42.9663C65.5791 41.9309 67.1462 41.2354 68.8152 40.944C70.4843 40.6525 72.2014 40.7745 73.8095 41.2987L78.1627 42.7175C78.2657 42.751 78.3003 42.8794 78.228 42.9601L57.3787 66.2622C57.3787 66.2622 57.3787 66.2622 57.3787 66.2623C56.4263 67.3261 55.2518 68.179 53.9337 68.7635C52.6155 69.348 51.1845 69.6503 49.7366 69.65H49.7365H16C14.2338 69.65 12.5415 68.9639 11.2949 67.7451C10.0487 66.5265 9.35 64.8754 9.35 63.1556V42.6222C9.35 41.81 9.67992 41.0294 10.2698 40.4526C10.86 39.8756 11.6621 39.55 12.5 39.55L40.255 39.55L40.2552 39.55C41.351 39.5493 42.4296 39.8138 43.3948 40.3194C44.3599 40.825 45.1812 41.5558 45.786 42.4459L45.7863 42.4464L48.8942 47.0045L64.2568 42.9663Z" stroke="url(#paint3_linear_16_63)" stroke-width="0.7" shape-rendering="crispEdges"/>
</g>
<g filter="url(#filter2_di_16_63)">
<path d="M36.2034 33.013L30.2966 28.6607C30.1203 28.5307 29.8798 28.5307 29.7034 28.6607L23.7966 33.013C23.4665 33.2563 23 33.0206 23 32.6105V14.5C23 14.2239 23.2239 14 23.5 14H30H36.5C36.7762 14 37 14.2239 37 14.5V32.6105C37 33.0206 36.5336 33.2563 36.2034 33.013Z" fill="url(#paint4_linear_16_63)" shape-rendering="crispEdges"/>
</g>
<defs>
<filter id="filter0_f_16_63" x="0" y="0" width="81" height="81" filterUnits="userSpaceOnUse" color-interpolation-filters="sRGB">
<feFlood flood-opacity="0" result="BackgroundImageFix"/>
<feBlend mode="normal" in="SourceGraphic" in2="BackgroundImageFix" result="shape"/>
<feGaussianBlur stdDeviation="7" result="effect1_foregroundBlur_16_63"/>
</filter>
<filter id="filter1_bd_16_63" x="5" y="35.2" width="77.6165" height="42.8" filterUnits="userSpaceOnUse" color-interpolation-filters="sRGB">
<feFlood flood-opacity="0" result="BackgroundImageFix"/>
<feGaussianBlur in="BackgroundImageFix" stdDeviation="2"/>
<feComposite in2="SourceAlpha" operator="in" result="effect1_backgroundBlur_16_63"/>
<feColorMatrix in="SourceAlpha" type="matrix" values="0 0 0 0 0 0 0 0 0 0 0 0 0 0 0 0 0 0 127 0" result="hardAlpha"/>
<feOffset dy="4"/>
<feGaussianBlur stdDeviation="2"/>
<feComposite in2="hardAlpha" operator="out"/>
<feColorMatrix type="matrix" values="0 0 0 0 0 0 0 0 0 0 0 0 0 0 0 0 0 0 0.25 0"/>
<feBlend mode="normal" in2="effect1_backgroundBlur_16_63" result="effect2_dropShadow_16_63"/>
<feBlend mode="normal" in="SourceGraphic" in2="effect2_dropShadow_16_63" result="shape"/>
</filter>
<filter id="filter2_di_16_63" x="21.5" y="13.5" width="17" height="23.6114" filterUnits="userSpaceOnUse" color-interpolation-filters="sRGB">
<feFlood flood-opacity="0" result="BackgroundImageFix"/>
<feColorMatrix in="SourceAlpha" type="matrix" values="0 0 0 0 0 0 0 0 0 0 0 0 0 0 0 0 0 0 127 0" result="hardAlpha"/>
<feOffset dy="1"/>
<feGaussianBlur stdDeviation="0.75"/>
<feComposite in2="hardAlpha" operator="out"/>
<feColorMatrix type="matrix" values="0 0 0 0 0 0 0 0 0 0 0 0 0 0 0 0 0 0 0.25 0"/>
<feBlend mode="normal" in2="BackgroundImageFix" result="effect1_dropShadow_16_63"/>
<feBlend mode="normal" in="SourceGraphic" in2="effect1_dropShadow_16_63" result="shape"/>
<feColorMatrix in="SourceAlpha" type="matrix" values="0 0 0 0 0 0 0 0 0 0 0 0 0 0 0 0 0 0 127 0" result="hardAlpha"/>
<feOffset dy="8"/>
<feGaussianBlur stdDeviation="2"/>
<feComposite in2="hardAlpha" operator="arithmetic" k2="-1" k3="1"/>
<feColorMatrix type="matrix" values="0 0 0 0 1 0 0 0 0 1 0 0 0 0 1 0 0 0 0.25 0"/>
<feBlend mode="normal" in2="shape" result="effect2_innerShadow_16_63"/>
</filter>
<linearGradient id="paint0_linear_16_63" x1="39.8" y1="14" x2="39.8" y2="58.8" gradientUnits="userSpaceOnUse">
<stop stop-color="#15C795"/>
<stop offset="1" stop-color="#139C7A"/>
</linearGradient>
<linearGradient id="paint1_linear_16_63" x1="40.5" y1="14" x2="40.5" y2="67" gradientUnits="userSpaceOnUse">
<stop stop-color="#3FD1A8"/>
<stop offset="1" stop-color="#0EBD8D"/>
</linearGradient>
<linearGradient id="paint2_linear_16_63" x1="-1.5" y1="73.08" x2="25.4219" y2="14.5541" gradientUnits="userSpaceOnUse">
<stop stop-color="white" stop-opacity="0.2"/>
<stop offset="1" stop-color="white" stop-opacity="0.5"/>
</linearGradient>
<linearGradient id="paint3_linear_16_63" x1="72" y1="73.08" x2="53.733" y2="23.4916" gradientUnits="userSpaceOnUse">
<stop stop-color="white" stop-opacity="0"/>
<stop offset="1" stop-color="white"/>
</linearGradient>
<linearGradient id="paint4_linear_16_63" x1="20.9" y1="35.56" x2="41.9188" y2="21.1993" gradientUnits="userSpaceOnUse">
<stop stop-color="white" stop-opacity="0.2"/>
<stop offset="1" stop-color="white" stop-opacity="0.5"/>
</linearGradient>
</defs>
</svg>
