<svg width="104" height="111" viewBox="0 0 104 111" fill="none" xmlns="http://www.w3.org/2000/svg">
<g filter="url(#filter0_f_38_12)">
<path d="M50.643 25C51.4128 23.6667 53.3373 23.6667 54.1071 25L79.5466 69.0625C80.3164 70.3958 79.3541 72.0625 77.8145 72.0625H26.9355C25.3959 72.0625 24.4337 70.3958 25.2035 69.0625L50.643 25Z" fill="white"/>
</g>
<path d="M53.4242 41.6875C54.194 40.3542 56.1185 40.3542 56.8883 41.6875L84.7364 89.9219C85.5062 91.2552 84.544 92.9219 83.0044 92.9219H27.3081C25.7685 92.9219 24.8063 91.2552 25.5761 89.9219L53.4242 41.6875Z" fill="url(#paint0_linear_38_12)"/>
<g filter="url(#filter1_bd_38_12)">
<circle cx="55.1563" cy="52.5938" r="27.8125" fill="url(#paint1_linear_38_12)" shape-rendering="crispEdges"/>
<circle cx="55.1563" cy="52.5938" r="27.3125" stroke="url(#paint2_linear_38_12)" shape-rendering="crispEdges"/>
</g>
<g filter="url(#filter2_di_38_12)">
<path fill-rule="evenodd" clip-rule="evenodd" d="M53.8625 38.9954C53.8625 37.5514 52.7699 36.3807 51.4222 36.3807H50.202C48.8542 36.3807 47.7616 37.5514 47.7616 38.9954V58.6056V59.9129C47.7616 61.357 48.8542 62.5276 50.202 62.5276H51.4222C51.423 62.5276 51.4239 62.5276 51.4247 62.5276L63.624 62.5276C64.9718 62.5276 66.0644 61.357 66.0644 59.9129V58.6056C66.0644 57.1615 64.9718 55.9909 63.624 55.9909H53.8625L53.8625 38.9954Z" fill="url(#paint3_linear_38_12)" shape-rendering="crispEdges"/>
</g>
<defs>
<filter id="filter0_f_38_12" x="0.932495" y="0" width="102.885" height="96.0625" filterUnits="userSpaceOnUse" color-interpolation-filters="sRGB">
<feFlood flood-opacity="0" result="BackgroundImageFix"/>
<feBlend mode="normal" in="SourceGraphic" in2="BackgroundImageFix" result="shape"/>
<feGaussianBlur stdDeviation="12" result="effect1_foregroundBlur_38_12"/>
</filter>
<filter id="filter1_bd_38_12" x="23.3438" y="20.7812" width="63.625" height="67.625" filterUnits="userSpaceOnUse" color-interpolation-filters="sRGB">
<feFlood flood-opacity="0" result="BackgroundImageFix"/>
<feGaussianBlur in="BackgroundImageFix" stdDeviation="2"/>
<feComposite in2="SourceAlpha" operator="in" result="effect1_backgroundBlur_38_12"/>
<feColorMatrix in="SourceAlpha" type="matrix" values="0 0 0 0 0 0 0 0 0 0 0 0 0 0 0 0 0 0 127 0" result="hardAlpha"/>
<feOffset dy="4"/>
<feGaussianBlur stdDeviation="2"/>
<feComposite in2="hardAlpha" operator="out"/>
<feColorMatrix type="matrix" values="0 0 0 0 0 0 0 0 0 0 0 0 0 0 0 0 0 0 0.25 0"/>
<feBlend mode="normal" in2="effect1_backgroundBlur_38_12" result="effect2_dropShadow_38_12"/>
<feBlend mode="normal" in="SourceGraphic" in2="effect2_dropShadow_38_12" result="shape"/>
</filter>
<filter id="filter2_di_38_12" x="45.8616" y="35.4807" width="22.1029" height="31.0469" filterUnits="userSpaceOnUse" color-interpolation-filters="sRGB">
<feFlood flood-opacity="0" result="BackgroundImageFix"/>
<feColorMatrix in="SourceAlpha" type="matrix" values="0 0 0 0 0 0 0 0 0 0 0 0 0 0 0 0 0 0 127 0" result="hardAlpha"/>
<feOffset dy="1"/>
<feGaussianBlur stdDeviation="0.95"/>
<feComposite in2="hardAlpha" operator="out"/>
<feColorMatrix type="matrix" values="0 0 0 0 0 0 0 0 0 0 0 0 0 0 0 0 0 0 0.41 0"/>
<feBlend mode="normal" in2="BackgroundImageFix" result="effect1_dropShadow_38_12"/>
<feBlend mode="normal" in="SourceGraphic" in2="effect1_dropShadow_38_12" result="shape"/>
<feColorMatrix in="SourceAlpha" type="matrix" values="0 0 0 0 0 0 0 0 0 0 0 0 0 0 0 0 0 0 127 0" result="hardAlpha"/>
<feOffset dy="8"/>
<feGaussianBlur stdDeviation="2"/>
<feComposite in2="hardAlpha" operator="arithmetic" k2="-1" k3="1"/>
<feColorMatrix type="matrix" values="0 0 0 0 1 0 0 0 0 1 0 0 0 0 1 0 0 0 0.25 0"/>
<feBlend mode="normal" in2="shape" result="effect2_innerShadow_38_12"/>
</filter>
<linearGradient id="paint0_linear_38_12" x1="19" y1="97.0938" x2="84.3594" y2="65.1094" gradientUnits="userSpaceOnUse">
<stop stop-color="white"/>
<stop offset="1" stop-color="#454545"/>
</linearGradient>
<linearGradient id="paint1_linear_38_12" x1="19" y1="85.9688" x2="82.9688" y2="24.7812" gradientUnits="userSpaceOnUse">
<stop stop-color="white" stop-opacity="0.2"/>
<stop offset="1" stop-color="white" stop-opacity="0.5"/>
</linearGradient>
<linearGradient id="paint2_linear_38_12" x1="77.4063" y1="85.9688" x2="27.3438" y2="26.1719" gradientUnits="userSpaceOnUse">
<stop stop-color="white" stop-opacity="0"/>
<stop offset="1" stop-color="white"/>
</linearGradient>
<linearGradient id="paint3_linear_38_12" x1="45.0162" y1="65.1423" x2="72.8457" y2="46.5086" gradientUnits="userSpaceOnUse">
<stop stop-color="white" stop-opacity="0.2"/>
<stop offset="1" stop-color="white" stop-opacity="0.5"/>
</linearGradient>
</defs>
</svg>
