<svg width="105" height="100" viewBox="0 0 105 100" fill="none" xmlns="http://www.w3.org/2000/svg">
<g filter="url(#filter0_f_26_29)">
<rect x="40" y="56" width="24" height="16" fill="#D9D9D9" fill-opacity="0.79"/>
</g>
<g filter="url(#filter1_di_26_29)">
<path d="M52.2829 24L53.8807 28.9174H59.0512L54.8682 31.9565L56.4659 36.8739L52.2829 33.8348L48.0999 36.8739L49.6977 31.9565L45.5147 28.9174H50.6852L52.2829 24Z" fill="white" fill-opacity="0.4" shape-rendering="crispEdges"/>
</g>
<g filter="url(#filter2_di_26_29)">
<path d="M74.6391 39.6331L75.9651 43.7143H80.2564L76.7847 46.2366L78.1108 50.3178L74.6391 47.7955L71.1674 50.3178L72.4934 46.2366L69.0217 43.7143H73.313L74.6391 39.6331Z" fill="white" fill-opacity="0.4" shape-rendering="crispEdges"/>
</g>
<g filter="url(#filter3_di_26_29)">
<path d="M29.8695 38.2332L31.1498 42.3144H35.2931L31.9411 44.8367L33.2214 48.9179L29.8695 46.3956L26.5175 48.9179L27.7978 44.8367L24.4459 42.3144H28.5891L29.8695 38.2332Z" fill="white" fill-opacity="0.4" shape-rendering="crispEdges"/>
</g>
<g filter="url(#filter4_bd_26_29)">
<path d="M67.2906 73.0611C67.2917 73.0611 67.2925 73.06 67.2923 73.0589C65.9581 66.182 59.9048 60.9922 52.6349 60.9922C45.3642 60.9922 39.3104 66.1831 37.9771 73.0611C37.688 74.5454 38.8616 75.9219 40.3718 75.9219H64.8936C66.4074 75.9219 67.5764 74.551 67.2888 73.0632C67.2886 73.0621 67.2894 73.0611 67.2906 73.0611Z" fill="url(#paint0_linear_26_29)" shape-rendering="crispEdges"/>
<path d="M38.4678 73.1567L38.4679 73.1562C39.7565 66.509 45.608 61.4922 52.6349 61.4922C59.64 61.4922 65.4771 66.478 66.7898 73.0946C66.7911 73.1156 66.7938 73.1367 66.7979 73.1579L66.7979 73.1581C67.0238 74.3269 66.1041 75.4219 64.8936 75.4219H40.3718C39.1648 75.4219 38.241 74.3213 38.4678 73.1567Z" stroke="url(#paint1_linear_26_29)" shape-rendering="crispEdges"/>
</g>
<g filter="url(#filter5_bd_26_29)">
<path d="M52.6347 57.4857C56.7289 57.4857 60.0478 54.1667 60.0478 50.0726C60.0478 45.9785 56.7289 42.6595 52.6347 42.6595C48.5406 42.6595 45.2217 45.9785 45.2217 50.0726C45.2217 54.1667 48.5406 57.4857 52.6347 57.4857Z" fill="url(#paint2_linear_26_29)" shape-rendering="crispEdges"/>
<path d="M59.5478 50.0726C59.5478 53.8906 56.4527 56.9857 52.6347 56.9857C48.8168 56.9857 45.7217 53.8906 45.7217 50.0726C45.7217 46.2546 48.8168 43.1595 52.6347 43.1595C56.4527 43.1595 59.5478 46.2546 59.5478 50.0726Z" stroke="url(#paint3_linear_26_29)" shape-rendering="crispEdges"/>
</g>
<g filter="url(#filter6_bd_26_29)">
<path d="M81.3086 74.3263C81.3092 74.3263 81.3097 74.3257 81.3095 74.3251C80.5528 70.4243 77.1192 67.4805 72.9955 67.4805C68.8714 67.4805 65.4374 70.4249 64.6812 74.3263C64.5172 75.1682 65.1829 75.949 66.0395 75.949H79.9489C80.8076 75.949 81.4707 75.1714 81.3076 74.3275C81.3074 74.3269 81.3079 74.3263 81.3086 74.3263Z" fill="url(#paint4_linear_26_29)" shape-rendering="crispEdges"/>
<path d="M65.1719 74.4219L65.172 74.4214C65.8836 70.7508 69.1152 67.9805 72.9955 67.9805C76.8595 67.9805 80.0803 70.7276 80.8098 74.3753C80.8114 74.3909 80.8136 74.4065 80.8166 74.4222L80.8167 74.4224C80.9181 74.9473 80.5043 75.449 79.9489 75.449H66.0395C65.4861 75.449 65.0702 74.9441 65.1719 74.4219Z" stroke="url(#paint5_linear_26_29)" shape-rendering="crispEdges"/>
</g>
<g filter="url(#filter7_bd_26_29)">
<path d="M72.9954 65.4916C75.3176 65.4916 77.2002 63.609 77.2002 61.2867C77.2002 58.9644 75.3176 57.0818 72.9954 57.0818C70.6731 57.0818 68.7905 58.9644 68.7905 61.2867C68.7905 63.609 70.6731 65.4916 72.9954 65.4916Z" fill="url(#paint6_linear_26_29)" shape-rendering="crispEdges"/>
<path d="M76.7002 61.2867C76.7002 63.3328 75.0415 64.9916 72.9954 64.9916C70.9492 64.9916 69.2905 63.3328 69.2905 61.2867C69.2905 59.2405 70.9492 57.5818 72.9954 57.5818C75.0415 57.5818 76.7002 59.2405 76.7002 61.2867Z" stroke="url(#paint7_linear_26_29)" shape-rendering="crispEdges"/>
</g>
<g filter="url(#filter8_bd_26_29)">
<path d="M39.6524 74.3773C39.653 74.3773 39.6535 74.3767 39.6534 74.3761C38.8966 70.4753 35.463 67.5315 31.3393 67.5315C27.2152 67.5315 23.7813 70.4759 23.025 74.3773C22.861 75.2192 23.5267 76 24.3833 76H38.2928C39.1514 76 39.8145 75.2224 39.6514 74.3785C39.6513 74.3779 39.6517 74.3773 39.6524 74.3773Z" fill="url(#paint8_linear_26_29)" shape-rendering="crispEdges"/>
<path d="M23.5157 74.4729L23.5158 74.4724C24.2274 70.8018 27.459 68.0315 31.3393 68.0315C35.2033 68.0315 38.4241 70.7786 39.1537 74.4264C39.1552 74.4419 39.1574 74.4576 39.1604 74.4732L39.1605 74.4734C39.2619 74.9983 38.8481 75.5 38.2928 75.5H24.3833C23.8299 75.5 23.414 74.9952 23.5157 74.4729Z" stroke="url(#paint9_linear_26_29)" shape-rendering="crispEdges"/>
</g>
<g filter="url(#filter9_bd_26_29)">
<path d="M31.3392 65.5425C33.6615 65.5425 35.544 63.6599 35.544 61.3376C35.544 59.0153 33.6615 57.1327 31.3392 57.1327C29.0169 57.1327 27.1343 59.0153 27.1343 61.3376C27.1343 63.6599 29.0169 65.5425 31.3392 65.5425Z" fill="url(#paint10_linear_26_29)" shape-rendering="crispEdges"/>
<path d="M35.044 61.3376C35.044 63.3837 33.3853 65.0425 31.3392 65.0425C29.293 65.0425 27.6343 63.3837 27.6343 61.3376C27.6343 59.2914 29.293 57.6327 31.3392 57.6327C33.3853 57.6327 35.044 59.2914 35.044 61.3376Z" stroke="url(#paint11_linear_26_29)" shape-rendering="crispEdges"/>
</g>
<defs>
<filter id="filter0_f_26_29" x="12.9" y="28.9" width="78.2" height="70.2" filterUnits="userSpaceOnUse" color-interpolation-filters="sRGB">
<feFlood flood-opacity="0" result="BackgroundImageFix"/>
<feBlend mode="normal" in="SourceGraphic" in2="BackgroundImageFix" result="shape"/>
<feGaussianBlur stdDeviation="13.55" result="effect1_foregroundBlur_26_29"/>
</filter>
<filter id="filter1_di_26_29" x="21.5147" y="0" width="61.5364" height="60.8739" filterUnits="userSpaceOnUse" color-interpolation-filters="sRGB">
<feFlood flood-opacity="0" result="BackgroundImageFix"/>
<feColorMatrix in="SourceAlpha" type="matrix" values="0 0 0 0 0 0 0 0 0 0 0 0 0 0 0 0 0 0 127 0" result="hardAlpha"/>
<feOffset/>
<feGaussianBlur stdDeviation="12"/>
<feComposite in2="hardAlpha" operator="out"/>
<feColorMatrix type="matrix" values="0 0 0 0 1 0 0 0 0 1 0 0 0 0 1 0 0 0 0.44 0"/>
<feBlend mode="normal" in2="BackgroundImageFix" result="effect1_dropShadow_26_29"/>
<feBlend mode="normal" in="SourceGraphic" in2="effect1_dropShadow_26_29" result="shape"/>
<feColorMatrix in="SourceAlpha" type="matrix" values="0 0 0 0 0 0 0 0 0 0 0 0 0 0 0 0 0 0 127 0" result="hardAlpha"/>
<feOffset dx="-9" dy="-2"/>
<feGaussianBlur stdDeviation="8.75"/>
<feComposite in2="hardAlpha" operator="arithmetic" k2="-1" k3="1"/>
<feColorMatrix type="matrix" values="0 0 0 0 1 0 0 0 0 1 0 0 0 0 1 0 0 0 1 0"/>
<feBlend mode="normal" in2="shape" result="effect2_innerShadow_26_29"/>
</filter>
<filter id="filter2_di_26_29" x="45.0217" y="15.6331" width="59.2346" height="58.6848" filterUnits="userSpaceOnUse" color-interpolation-filters="sRGB">
<feFlood flood-opacity="0" result="BackgroundImageFix"/>
<feColorMatrix in="SourceAlpha" type="matrix" values="0 0 0 0 0 0 0 0 0 0 0 0 0 0 0 0 0 0 127 0" result="hardAlpha"/>
<feOffset/>
<feGaussianBlur stdDeviation="12"/>
<feComposite in2="hardAlpha" operator="out"/>
<feColorMatrix type="matrix" values="0 0 0 0 1 0 0 0 0 1 0 0 0 0 1 0 0 0 0.44 0"/>
<feBlend mode="normal" in2="BackgroundImageFix" result="effect1_dropShadow_26_29"/>
<feBlend mode="normal" in="SourceGraphic" in2="effect1_dropShadow_26_29" result="shape"/>
<feColorMatrix in="SourceAlpha" type="matrix" values="0 0 0 0 0 0 0 0 0 0 0 0 0 0 0 0 0 0 127 0" result="hardAlpha"/>
<feOffset dx="-9" dy="-2"/>
<feGaussianBlur stdDeviation="8.75"/>
<feComposite in2="hardAlpha" operator="arithmetic" k2="-1" k3="1"/>
<feColorMatrix type="matrix" values="0 0 0 0 1 0 0 0 0 1 0 0 0 0 1 0 0 0 1 0"/>
<feBlend mode="normal" in2="shape" result="effect2_innerShadow_26_29"/>
</filter>
<filter id="filter3_di_26_29" x="0.445862" y="14.2332" width="58.8472" height="58.6848" filterUnits="userSpaceOnUse" color-interpolation-filters="sRGB">
<feFlood flood-opacity="0" result="BackgroundImageFix"/>
<feColorMatrix in="SourceAlpha" type="matrix" values="0 0 0 0 0 0 0 0 0 0 0 0 0 0 0 0 0 0 127 0" result="hardAlpha"/>
<feOffset/>
<feGaussianBlur stdDeviation="12"/>
<feComposite in2="hardAlpha" operator="out"/>
<feColorMatrix type="matrix" values="0 0 0 0 1 0 0 0 0 1 0 0 0 0 1 0 0 0 0.44 0"/>
<feBlend mode="normal" in2="BackgroundImageFix" result="effect1_dropShadow_26_29"/>
<feBlend mode="normal" in="SourceGraphic" in2="effect1_dropShadow_26_29" result="shape"/>
<feColorMatrix in="SourceAlpha" type="matrix" values="0 0 0 0 0 0 0 0 0 0 0 0 0 0 0 0 0 0 127 0" result="hardAlpha"/>
<feOffset dx="-9" dy="-2"/>
<feGaussianBlur stdDeviation="8.75"/>
<feComposite in2="hardAlpha" operator="arithmetic" k2="-1" k3="1"/>
<feColorMatrix type="matrix" values="0 0 0 0 1 0 0 0 0 1 0 0 0 0 1 0 0 0 1 0"/>
<feBlend mode="normal" in2="shape" result="effect2_innerShadow_26_29"/>
</filter>
<filter id="filter4_bd_26_29" x="33.933" y="56.9922" width="37.3995" height="26.9297" filterUnits="userSpaceOnUse" color-interpolation-filters="sRGB">
<feFlood flood-opacity="0" result="BackgroundImageFix"/>
<feGaussianBlur in="BackgroundImageFix" stdDeviation="2"/>
<feComposite in2="SourceAlpha" operator="in" result="effect1_backgroundBlur_26_29"/>
<feColorMatrix in="SourceAlpha" type="matrix" values="0 0 0 0 0 0 0 0 0 0 0 0 0 0 0 0 0 0 127 0" result="hardAlpha"/>
<feOffset dy="4"/>
<feGaussianBlur stdDeviation="2"/>
<feComposite in2="hardAlpha" operator="out"/>
<feColorMatrix type="matrix" values="0 0 0 0 0 0 0 0 0 0 0 0 0 0 0 0 0 0 0.25 0"/>
<feBlend mode="normal" in2="effect1_backgroundBlur_26_29" result="effect2_dropShadow_26_29"/>
<feBlend mode="normal" in="SourceGraphic" in2="effect2_dropShadow_26_29" result="shape"/>
</filter>
<filter id="filter5_bd_26_29" x="41.2217" y="38.6595" width="22.8261" height="26.826" filterUnits="userSpaceOnUse" color-interpolation-filters="sRGB">
<feFlood flood-opacity="0" result="BackgroundImageFix"/>
<feGaussianBlur in="BackgroundImageFix" stdDeviation="2"/>
<feComposite in2="SourceAlpha" operator="in" result="effect1_backgroundBlur_26_29"/>
<feColorMatrix in="SourceAlpha" type="matrix" values="0 0 0 0 0 0 0 0 0 0 0 0 0 0 0 0 0 0 127 0" result="hardAlpha"/>
<feOffset dy="4"/>
<feGaussianBlur stdDeviation="2"/>
<feComposite in2="hardAlpha" operator="out"/>
<feColorMatrix type="matrix" values="0 0 0 0 0 0 0 0 0 0 0 0 0 0 0 0 0 0 0.25 0"/>
<feBlend mode="normal" in2="effect1_backgroundBlur_26_29" result="effect2_dropShadow_26_29"/>
<feBlend mode="normal" in="SourceGraphic" in2="effect2_dropShadow_26_29" result="shape"/>
</filter>
<filter id="filter6_bd_26_29" x="60.6562" y="63.4805" width="24.6761" height="20.4685" filterUnits="userSpaceOnUse" color-interpolation-filters="sRGB">
<feFlood flood-opacity="0" result="BackgroundImageFix"/>
<feGaussianBlur in="BackgroundImageFix" stdDeviation="2"/>
<feComposite in2="SourceAlpha" operator="in" result="effect1_backgroundBlur_26_29"/>
<feColorMatrix in="SourceAlpha" type="matrix" values="0 0 0 0 0 0 0 0 0 0 0 0 0 0 0 0 0 0 127 0" result="hardAlpha"/>
<feOffset dy="4"/>
<feGaussianBlur stdDeviation="2"/>
<feComposite in2="hardAlpha" operator="out"/>
<feColorMatrix type="matrix" values="0 0 0 0 0 0 0 0 0 0 0 0 0 0 0 0 0 0 0.25 0"/>
<feBlend mode="normal" in2="effect1_backgroundBlur_26_29" result="effect2_dropShadow_26_29"/>
<feBlend mode="normal" in="SourceGraphic" in2="effect2_dropShadow_26_29" result="shape"/>
</filter>
<filter id="filter7_bd_26_29" x="64.7905" y="53.0818" width="16.4098" height="20.4098" filterUnits="userSpaceOnUse" color-interpolation-filters="sRGB">
<feFlood flood-opacity="0" result="BackgroundImageFix"/>
<feGaussianBlur in="BackgroundImageFix" stdDeviation="2"/>
<feComposite in2="SourceAlpha" operator="in" result="effect1_backgroundBlur_26_29"/>
<feColorMatrix in="SourceAlpha" type="matrix" values="0 0 0 0 0 0 0 0 0 0 0 0 0 0 0 0 0 0 127 0" result="hardAlpha"/>
<feOffset dy="4"/>
<feGaussianBlur stdDeviation="2"/>
<feComposite in2="hardAlpha" operator="out"/>
<feColorMatrix type="matrix" values="0 0 0 0 0 0 0 0 0 0 0 0 0 0 0 0 0 0 0.25 0"/>
<feBlend mode="normal" in2="effect1_backgroundBlur_26_29" result="effect2_dropShadow_26_29"/>
<feBlend mode="normal" in="SourceGraphic" in2="effect2_dropShadow_26_29" result="shape"/>
</filter>
<filter id="filter8_bd_26_29" x="19" y="63.5315" width="24.6761" height="20.4685" filterUnits="userSpaceOnUse" color-interpolation-filters="sRGB">
<feFlood flood-opacity="0" result="BackgroundImageFix"/>
<feGaussianBlur in="BackgroundImageFix" stdDeviation="2"/>
<feComposite in2="SourceAlpha" operator="in" result="effect1_backgroundBlur_26_29"/>
<feColorMatrix in="SourceAlpha" type="matrix" values="0 0 0 0 0 0 0 0 0 0 0 0 0 0 0 0 0 0 127 0" result="hardAlpha"/>
<feOffset dy="4"/>
<feGaussianBlur stdDeviation="2"/>
<feComposite in2="hardAlpha" operator="out"/>
<feColorMatrix type="matrix" values="0 0 0 0 0 0 0 0 0 0 0 0 0 0 0 0 0 0 0.25 0"/>
<feBlend mode="normal" in2="effect1_backgroundBlur_26_29" result="effect2_dropShadow_26_29"/>
<feBlend mode="normal" in="SourceGraphic" in2="effect2_dropShadow_26_29" result="shape"/>
</filter>
<filter id="filter9_bd_26_29" x="23.1343" y="53.1327" width="16.4098" height="20.4098" filterUnits="userSpaceOnUse" color-interpolation-filters="sRGB">
<feFlood flood-opacity="0" result="BackgroundImageFix"/>
<feGaussianBlur in="BackgroundImageFix" stdDeviation="2"/>
<feComposite in2="SourceAlpha" operator="in" result="effect1_backgroundBlur_26_29"/>
<feColorMatrix in="SourceAlpha" type="matrix" values="0 0 0 0 0 0 0 0 0 0 0 0 0 0 0 0 0 0 127 0" result="hardAlpha"/>
<feOffset dy="4"/>
<feGaussianBlur stdDeviation="2"/>
<feComposite in2="hardAlpha" operator="out"/>
<feColorMatrix type="matrix" values="0 0 0 0 0 0 0 0 0 0 0 0 0 0 0 0 0 0 0.25 0"/>
<feBlend mode="normal" in2="effect1_backgroundBlur_26_29" result="effect2_dropShadow_26_29"/>
<feBlend mode="normal" in="SourceGraphic" in2="effect2_dropShadow_26_29" result="shape"/>
</filter>
<linearGradient id="paint0_linear_26_29" x1="33.5231" y1="77.4148" x2="47.759" y2="50.6005" gradientUnits="userSpaceOnUse">
<stop stop-color="white" stop-opacity="0.2"/>
<stop offset="1" stop-color="white" stop-opacity="0.5"/>
</linearGradient>
<linearGradient id="paint1_linear_26_29" x1="64.3926" y1="77.4148" x2="54.5631" y2="54.2951" gradientUnits="userSpaceOnUse">
<stop stop-color="white" stop-opacity="0"/>
<stop offset="1" stop-color="white"/>
</linearGradient>
<linearGradient id="paint2_linear_26_29" x1="42.9978" y1="58.9683" x2="60.0478" y2="42.6595" gradientUnits="userSpaceOnUse">
<stop stop-color="white" stop-opacity="0.2"/>
<stop offset="1" stop-color="white" stop-opacity="0.5"/>
</linearGradient>
<linearGradient id="paint3_linear_26_29" x1="58.5652" y1="58.9683" x2="45.2217" y2="43.0302" gradientUnits="userSpaceOnUse">
<stop stop-color="white" stop-opacity="0"/>
<stop offset="1" stop-color="white"/>
</linearGradient>
<linearGradient id="paint4_linear_26_29" x1="62.1548" y1="76.7958" x2="70.2297" y2="61.586" gradientUnits="userSpaceOnUse">
<stop stop-color="white" stop-opacity="0.2"/>
<stop offset="1" stop-color="white" stop-opacity="0.5"/>
</linearGradient>
<linearGradient id="paint5_linear_26_29" x1="79.6647" y1="76.7958" x2="74.0892" y2="63.6817" gradientUnits="userSpaceOnUse">
<stop stop-color="white" stop-opacity="0"/>
<stop offset="1" stop-color="white"/>
</linearGradient>
<linearGradient id="paint6_linear_26_29" x1="67.529" y1="66.3325" x2="77.2002" y2="57.0818" gradientUnits="userSpaceOnUse">
<stop stop-color="white" stop-opacity="0.2"/>
<stop offset="1" stop-color="white" stop-opacity="0.5"/>
</linearGradient>
<linearGradient id="paint7_linear_26_29" x1="76.3593" y1="66.3325" x2="68.7905" y2="57.292" gradientUnits="userSpaceOnUse">
<stop stop-color="white" stop-opacity="0"/>
<stop offset="1" stop-color="white"/>
</linearGradient>
<linearGradient id="paint8_linear_26_29" x1="20.4986" y1="76.8469" x2="28.5735" y2="61.6371" gradientUnits="userSpaceOnUse">
<stop stop-color="white" stop-opacity="0.2"/>
<stop offset="1" stop-color="white" stop-opacity="0.5"/>
</linearGradient>
<linearGradient id="paint9_linear_26_29" x1="38.0086" y1="76.8469" x2="32.433" y2="63.7327" gradientUnits="userSpaceOnUse">
<stop stop-color="white" stop-opacity="0"/>
<stop offset="1" stop-color="white"/>
</linearGradient>
<linearGradient id="paint10_linear_26_29" x1="25.8728" y1="66.3834" x2="35.544" y2="57.1327" gradientUnits="userSpaceOnUse">
<stop stop-color="white" stop-opacity="0.2"/>
<stop offset="1" stop-color="white" stop-opacity="0.5"/>
</linearGradient>
<linearGradient id="paint11_linear_26_29" x1="34.7031" y1="66.3834" x2="27.1343" y2="57.3429" gradientUnits="userSpaceOnUse">
<stop stop-color="white" stop-opacity="0"/>
<stop offset="1" stop-color="white"/>
</linearGradient>
</defs>
</svg>
