<svg width="63" height="8" viewBox="0 0 63 8" fill="none" xmlns="http://www.w3.org/2000/svg">
<path d="M4.216 7L3.8 5.64H1.72L1.304 7H0L2.016 1.264H3.496L5.52 7H4.216ZM3.096 3.296C3.06933 3.20533 3.03467 3.09067 2.992 2.952C2.94933 2.81333 2.90667 2.672 2.864 2.528C2.82133 2.384 2.78667 2.25867 2.76 2.152C2.73333 2.25867 2.696 2.392 2.648 2.552C2.60533 2.70667 2.56267 2.856 2.52 3C2.48267 3.13867 2.45333 3.23733 2.432 3.296L2.024 4.624H3.512L3.096 3.296ZM7.18744 7L5.52344 2.632H6.77144L7.61144 5.12C7.64344 5.216 7.6701 5.31733 7.69144 5.424C7.7181 5.53067 7.73677 5.63467 7.74744 5.736C7.76344 5.83733 7.7741 5.93067 7.77944 6.016H7.81144C7.81677 5.92533 7.82744 5.82933 7.84344 5.728C7.85944 5.62667 7.8781 5.52533 7.89944 5.424C7.9261 5.31733 7.95544 5.216 7.98744 5.12L8.82744 2.632H10.0754L8.41144 7H7.18744ZM12.4941 2.544C13.0808 2.544 13.5288 2.672 13.8381 2.928C14.1528 3.17867 14.3101 3.56533 14.3101 4.088V7H13.4781L13.2461 6.408H13.2141C13.0915 6.56267 12.9635 6.69067 12.8301 6.792C12.7021 6.89333 12.5528 6.96533 12.3821 7.008C12.2168 7.056 12.0115 7.08 11.7661 7.08C11.5101 7.08 11.2781 7.032 11.0701 6.936C10.8675 6.83467 10.7075 6.68267 10.5901 6.48C10.4728 6.272 10.4141 6.01067 10.4141 5.696C10.4141 5.232 10.5768 4.89067 10.9021 4.672C11.2275 4.448 11.7155 4.32533 12.3661 4.304L13.1261 4.28V4.088C13.1261 3.85867 13.0648 3.69067 12.9421 3.584C12.8248 3.47733 12.6595 3.424 12.4461 3.424C12.2328 3.424 12.0248 3.456 11.8221 3.52C11.6195 3.57867 11.4168 3.65333 11.2141 3.744L10.8221 2.936C11.0568 2.81333 11.3155 2.71733 11.5981 2.648C11.8861 2.57867 12.1848 2.544 12.4941 2.544ZM12.6621 4.992C12.2781 5.00267 12.0115 5.072 11.8621 5.2C11.7128 5.328 11.6381 5.496 11.6381 5.704C11.6381 5.88533 11.6915 6.016 11.7981 6.096C11.9048 6.17067 12.0435 6.208 12.2141 6.208C12.4701 6.208 12.6861 6.13333 12.8621 5.984C13.0381 5.82933 13.1261 5.61333 13.1261 5.336V4.976L12.6621 4.992ZM16.7223 2.632V7H15.5303V2.632H16.7223ZM16.1303 0.92C16.3063 0.92 16.4583 0.962666 16.5863 1.048C16.7143 1.128 16.7783 1.28 16.7783 1.504C16.7783 1.72267 16.7143 1.87467 16.5863 1.96C16.4583 2.04533 16.3063 2.088 16.1303 2.088C15.9489 2.088 15.7943 2.04533 15.6663 1.96C15.5436 1.87467 15.4823 1.72267 15.4823 1.504C15.4823 1.28 15.5436 1.128 15.6663 1.048C15.7943 0.962666 15.9489 0.92 16.1303 0.92ZM19.1598 7H17.9678V0.92H19.1598V7ZM22.1973 2.544C22.7839 2.544 23.2319 2.672 23.5413 2.928C23.8559 3.17867 24.0133 3.56533 24.0133 4.088V7H23.1813L22.9493 6.408H22.9173C22.7946 6.56267 22.6666 6.69067 22.5333 6.792C22.4053 6.89333 22.2559 6.96533 22.0853 7.008C21.9199 7.056 21.7146 7.08 21.4693 7.08C21.2133 7.08 20.9813 7.032 20.7733 6.936C20.5706 6.83467 20.4106 6.68267 20.2933 6.48C20.1759 6.272 20.1173 6.01067 20.1173 5.696C20.1173 5.232 20.2799 4.89067 20.6053 4.672C20.9306 4.448 21.4186 4.32533 22.0693 4.304L22.8293 4.28V4.088C22.8293 3.85867 22.7679 3.69067 22.6453 3.584C22.5279 3.47733 22.3626 3.424 22.1493 3.424C21.9359 3.424 21.7279 3.456 21.5253 3.52C21.3226 3.57867 21.1199 3.65333 20.9173 3.744L20.5253 2.936C20.7599 2.81333 21.0186 2.71733 21.3013 2.648C21.5893 2.57867 21.8879 2.544 22.1973 2.544ZM22.3653 4.992C21.9813 5.00267 21.7146 5.072 21.5653 5.2C21.4159 5.328 21.3413 5.496 21.3413 5.704C21.3413 5.88533 21.3946 6.016 21.5013 6.096C21.6079 6.17067 21.7466 6.208 21.9173 6.208C22.1733 6.208 22.3893 6.13333 22.5653 5.984C22.7413 5.82933 22.8293 5.61333 22.8293 5.336V4.976L22.3653 4.992ZM26.4254 2.336C26.4254 2.50133 26.42 2.664 26.4094 2.824C26.3987 2.984 26.388 3.10933 26.3774 3.2H26.4254C26.5427 3.01867 26.7 2.86667 26.8974 2.744C27.0947 2.616 27.3507 2.552 27.6654 2.552C28.156 2.552 28.5534 2.744 28.8574 3.128C29.1614 3.50667 29.3134 4.06667 29.3134 4.808C29.3134 5.304 29.2414 5.72267 29.0974 6.064C28.9587 6.4 28.764 6.65333 28.5134 6.824C28.2627 6.99467 27.9694 7.08 27.6334 7.08C27.3134 7.08 27.06 7.024 26.8734 6.912C26.692 6.79467 26.5427 6.664 26.4254 6.52H26.3454L26.1454 7H25.2334V0.92H26.4254V2.336ZM27.2814 3.504C27.0734 3.504 26.908 3.54667 26.7854 3.632C26.6627 3.71733 26.572 3.848 26.5134 4.024C26.46 4.19467 26.4307 4.41067 26.4254 4.672V4.8C26.4254 5.22133 26.4867 5.54667 26.6094 5.776C26.7374 6 26.9667 6.112 27.2974 6.112C27.5427 6.112 27.7374 6 27.8814 5.776C28.0254 5.54667 28.0974 5.21867 28.0974 4.792C28.0974 4.36533 28.0227 4.04533 27.8734 3.832C27.7294 3.61333 27.532 3.504 27.2814 3.504ZM31.4879 7H30.2959V0.92H31.4879V7ZM34.5334 2.552C34.9387 2.552 35.2854 2.62933 35.5734 2.784C35.8667 2.93867 36.0934 3.16267 36.2534 3.456C36.4134 3.74933 36.4934 4.10933 36.4934 4.536V5.112H33.6774C33.688 5.448 33.7867 5.712 33.9734 5.904C34.1654 6.096 34.4294 6.192 34.7654 6.192C35.048 6.192 35.304 6.16533 35.5334 6.112C35.7627 6.05333 36 5.96533 36.2454 5.848V6.768C36.032 6.87467 35.8054 6.952 35.5654 7C35.3307 7.05333 35.0454 7.08 34.7094 7.08C34.272 7.08 33.8854 7 33.5494 6.84C33.2134 6.67467 32.9494 6.42667 32.7574 6.096C32.5654 5.76533 32.4694 5.34933 32.4694 4.848C32.4694 4.336 32.5547 3.912 32.7254 3.576C32.9014 3.23467 33.144 2.97867 33.4534 2.808C33.7627 2.63733 34.1227 2.552 34.5334 2.552ZM34.5414 3.4C34.312 3.4 34.12 3.47467 33.9654 3.624C33.816 3.77333 33.728 4.00533 33.7014 4.32H35.3734C35.3734 4.144 35.3414 3.98667 35.2774 3.848C35.2187 3.70933 35.128 3.6 35.0054 3.52C34.8827 3.44 34.728 3.4 34.5414 3.4ZM43.6545 4.808C43.6545 5.17067 43.6038 5.49333 43.5025 5.776C43.4065 6.05867 43.2652 6.29867 43.0785 6.496C42.8972 6.688 42.6758 6.83467 42.4145 6.936C42.1532 7.032 41.8572 7.08 41.5265 7.08C41.2225 7.08 40.9398 7.032 40.6785 6.936C40.4225 6.83467 40.2012 6.688 40.0145 6.496C39.8278 6.29867 39.6812 6.05867 39.5745 5.776C39.4732 5.49333 39.4225 5.17067 39.4225 4.808C39.4225 4.32267 39.5078 3.91467 39.6785 3.584C39.8492 3.248 40.0945 2.992 40.4145 2.816C40.7345 2.64 41.1132 2.552 41.5505 2.552C41.9612 2.552 42.3238 2.64 42.6385 2.816C42.9532 2.992 43.2012 3.248 43.3825 3.584C43.5638 3.91467 43.6545 4.32267 43.6545 4.808ZM40.6385 4.808C40.6385 5.096 40.6678 5.33867 40.7265 5.536C40.7905 5.728 40.8892 5.87467 41.0225 5.976C41.1558 6.072 41.3292 6.12 41.5425 6.12C41.7558 6.12 41.9265 6.072 42.0545 5.976C42.1878 5.87467 42.2838 5.728 42.3425 5.536C42.4065 5.33867 42.4385 5.096 42.4385 4.808C42.4385 4.52 42.4065 4.28 42.3425 4.088C42.2838 3.896 42.1878 3.752 42.0545 3.656C41.9212 3.56 41.7478 3.512 41.5345 3.512C41.2198 3.512 40.9905 3.62133 40.8465 3.84C40.7078 4.05333 40.6385 4.376 40.6385 4.808ZM47.0556 3.528H46.0236V7H44.8316V3.528H44.1756V2.952L44.8316 2.632V2.312C44.8316 1.93867 44.893 1.65067 45.0156 1.448C45.1436 1.24 45.3223 1.09333 45.5516 1.008C45.7863 0.922666 46.061 0.88 46.3756 0.88C46.6103 0.88 46.821 0.898666 47.0076 0.936C47.1996 0.973333 47.3543 1.016 47.4716 1.064L47.1676 1.936C47.077 1.90933 46.9783 1.88533 46.8716 1.864C46.765 1.83733 46.6423 1.824 46.5036 1.824C46.3383 1.824 46.2156 1.87467 46.1356 1.976C46.061 2.07733 46.0236 2.20533 46.0236 2.36V2.632H47.0556V3.528ZM50.1516 3.528H49.1196V7H47.9276V3.528H47.2716V2.952L47.9276 2.632V2.312C47.9276 1.93867 47.989 1.65067 48.1116 1.448C48.2396 1.24 48.4183 1.09333 48.6476 1.008C48.8823 0.922666 49.157 0.88 49.4716 0.88C49.7063 0.88 49.917 0.898666 50.1036 0.936C50.2956 0.973333 50.4503 1.016 50.5676 1.064L50.2636 1.936C50.173 1.90933 50.0743 1.88533 49.9676 1.864C49.861 1.83733 49.7383 1.824 49.5996 1.824C49.4343 1.824 49.3116 1.87467 49.2316 1.976C49.157 2.07733 49.1196 2.20533 49.1196 2.36V2.632H50.1516V3.528ZM52.6349 2.552C53.0403 2.552 53.3869 2.62933 53.6749 2.784C53.9683 2.93867 54.1949 3.16267 54.3549 3.456C54.5149 3.74933 54.5949 4.10933 54.5949 4.536V5.112H51.7789C51.7896 5.448 51.8883 5.712 52.0749 5.904C52.2669 6.096 52.5309 6.192 52.8669 6.192C53.1496 6.192 53.4056 6.16533 53.6349 6.112C53.8643 6.05333 54.1016 5.96533 54.3469 5.848V6.768C54.1336 6.87467 53.9069 6.952 53.6669 7C53.4323 7.05333 53.1469 7.08 52.8109 7.08C52.3736 7.08 51.9869 7 51.6509 6.84C51.3149 6.67467 51.0509 6.42667 50.8589 6.096C50.6669 5.76533 50.5709 5.34933 50.5709 4.848C50.5709 4.336 50.6563 3.912 50.8269 3.576C51.0029 3.23467 51.2456 2.97867 51.5549 2.808C51.8643 2.63733 52.2243 2.552 52.6349 2.552ZM52.6429 3.4C52.4136 3.4 52.2216 3.47467 52.0669 3.624C51.9176 3.77333 51.8296 4.00533 51.8029 4.32H53.4749C53.4749 4.144 53.4429 3.98667 53.3789 3.848C53.3203 3.70933 53.2296 3.6 53.1069 3.52C52.9843 3.44 52.8296 3.4 52.6429 3.4ZM58.0015 2.552C58.0602 2.552 58.1295 2.55467 58.2095 2.56C58.2895 2.56533 58.3535 2.57333 58.4015 2.584L58.3135 3.704C58.2762 3.69333 58.2202 3.68533 58.1455 3.68C58.0762 3.66933 58.0148 3.664 57.9615 3.664C57.8068 3.664 57.6575 3.68533 57.5135 3.728C57.3695 3.76533 57.2388 3.82667 57.1215 3.912C57.0095 3.99733 56.9188 4.112 56.8495 4.256C56.7855 4.39467 56.7535 4.568 56.7535 4.776V7H55.5615V2.632H56.4655L56.6415 3.368H56.6975C56.7828 3.21867 56.8895 3.08267 57.0175 2.96C57.1455 2.83733 57.2922 2.73867 57.4575 2.664C57.6282 2.58933 57.8095 2.552 58.0015 2.552ZM62.2423 5.704C62.2423 5.99733 62.173 6.248 62.0343 6.456C61.8956 6.65867 61.6876 6.81333 61.4103 6.92C61.133 7.02667 60.789 7.08 60.3783 7.08C60.0743 7.08 59.813 7.05867 59.5943 7.016C59.3756 6.97867 59.157 6.91467 58.9383 6.824V5.84C59.173 5.94667 59.4263 6.03467 59.6983 6.104C59.9703 6.17333 60.2103 6.208 60.4183 6.208C60.653 6.208 60.8183 6.17333 60.9143 6.104C61.0156 6.03467 61.0663 5.944 61.0663 5.832C61.0663 5.75733 61.045 5.69067 61.0023 5.632C60.965 5.57333 60.8796 5.50667 60.7463 5.432C60.613 5.35733 60.405 5.26133 60.1223 5.144C59.8503 5.02667 59.6263 4.912 59.4503 4.8C59.2743 4.68267 59.1436 4.544 59.0583 4.384C58.973 4.21867 58.9303 4.01333 58.9303 3.768C58.9303 3.36267 59.0876 3.05867 59.4023 2.856C59.717 2.65333 60.1356 2.552 60.6583 2.552C60.9303 2.552 61.189 2.57867 61.4343 2.632C61.6796 2.68533 61.933 2.77333 62.1943 2.896L61.8343 3.752C61.6903 3.688 61.5516 3.632 61.4183 3.584C61.285 3.536 61.1543 3.49867 61.0263 3.472C60.9036 3.44533 60.7756 3.432 60.6423 3.432C60.4663 3.432 60.333 3.456 60.2423 3.504C60.157 3.552 60.1143 3.624 60.1143 3.72C60.1143 3.78933 60.1356 3.85333 60.1783 3.912C60.2263 3.96533 60.3143 4.024 60.4423 4.088C60.5756 4.152 60.7703 4.23733 61.0263 4.344C61.277 4.44533 61.493 4.552 61.6743 4.664C61.8556 4.77067 61.9943 4.90667 62.0903 5.072C62.1916 5.232 62.2423 5.44267 62.2423 5.704Z" fill="white"/>
</svg>
