<svg width="77" height="83" viewBox="0 0 77 83" fill="none" xmlns="http://www.w3.org/2000/svg">
<g filter="url(#filter0_f_10_61)">
<path fill-rule="evenodd" clip-rule="evenodd" d="M52.7864 24.0018L52.7864 58.6463L45.7149 58.6463C45.7136 55.9137 42.5481 53.6987 38.6434 53.6987C34.7387 53.6987 31.5732 55.9137 31.572 58.6463L24.5006 58.6463L24.5006 24.0018L31.572 24.0018L31.572 24.0033C31.572 26.7367 34.738 28.9525 38.6434 28.9525C42.5489 28.9525 45.7149 26.7367 45.7149 24.0033L45.7149 24.0018L52.7864 24.0018Z" fill="url(#paint0_linear_10_61)"/>
</g>
<path fill-rule="evenodd" clip-rule="evenodd" d="M24.4999 24H74L74 32.3146C70.0946 32.3146 66.9286 36.0372 66.9286 40.6293C66.9286 45.2214 70.0946 48.944 74 48.944L74 57.2587H24.4999L24.4999 48.944C28.4054 48.944 31.5714 45.2214 31.5714 40.6293C31.5714 36.0372 28.4054 32.3146 24.4999 32.3146L24.4999 24Z" fill="url(#paint1_linear_10_61)"/>
<g filter="url(#filter1_bd_10_61)">
<mask id="path-3-inside-1_10_61" fill="white">
<path fill-rule="evenodd" clip-rule="evenodd" d="M8 32.7178C8 32.4969 8.17909 32.3178 8.4 32.3178H57.1001C57.321 32.3178 57.5001 32.4969 57.5001 32.7178L57.5001 40.2324C57.5001 40.4533 57.3206 40.631 57.1002 40.6455C53.3808 40.8893 50.4287 44.5128 50.4287 48.9471C50.4287 53.3814 53.3808 57.0049 57.1002 57.2487C57.3206 57.2631 57.5001 57.4409 57.5001 57.6618L57.5001 65.1765C57.5001 65.3974 57.321 65.5765 57.1001 65.5765H8.4C8.17909 65.5765 8 65.3974 8 65.1765V57.6618C8 57.4409 8.17948 57.2631 8.39992 57.2487C12.1193 57.0049 15.0714 53.3814 15.0714 48.9471C15.0714 44.5128 12.1193 40.8893 8.39992 40.6455C8.17948 40.631 8 40.4533 8 40.2324V32.7178Z"/>
</mask>
<path fill-rule="evenodd" clip-rule="evenodd" d="M8 32.7178C8 32.4969 8.17909 32.3178 8.4 32.3178H57.1001C57.321 32.3178 57.5001 32.4969 57.5001 32.7178L57.5001 40.2324C57.5001 40.4533 57.3206 40.631 57.1002 40.6455C53.3808 40.8893 50.4287 44.5128 50.4287 48.9471C50.4287 53.3814 53.3808 57.0049 57.1002 57.2487C57.3206 57.2631 57.5001 57.4409 57.5001 57.6618L57.5001 65.1765C57.5001 65.3974 57.321 65.5765 57.1001 65.5765H8.4C8.17909 65.5765 8 65.3974 8 65.1765V57.6618C8 57.4409 8.17948 57.2631 8.39992 57.2487C12.1193 57.0049 15.0714 53.3814 15.0714 48.9471C15.0714 44.5128 12.1193 40.8893 8.39992 40.6455C8.17948 40.631 8 40.4533 8 40.2324V32.7178Z" fill="url(#paint2_linear_10_61)" shape-rendering="crispEdges"/>
<path d="M8.39992 40.6455L8.36721 41.1444L8.39992 40.6455ZM8.39992 57.2487L8.36721 56.7498L8.39992 57.2487ZM57.1002 57.2487L57.0675 57.7476L57.1002 57.2487ZM57.5001 57.6618L58.0001 57.6618L57.5001 57.6618ZM57.5001 40.2324L58.0001 40.2324L57.5001 40.2324ZM57.1002 40.6455L57.0675 40.1466L57.1002 40.6455ZM57.5001 65.1765L57.0001 65.1765L57.5001 65.1765ZM57.5001 32.7178L57.0001 32.7178L57.5001 32.7178ZM57.1001 31.8178H8.4V32.8178H57.1001V31.8178ZM58.0001 40.2324L58.0001 32.7178L57.0001 32.7178L57.0001 40.2324L58.0001 40.2324ZM50.9287 48.9471C50.9287 44.7064 53.7408 41.3668 57.1329 41.1444L57.0675 40.1466C53.0208 40.4118 49.9287 44.3193 49.9287 48.9471H50.9287ZM57.1329 56.7498C53.7408 56.5274 50.9287 53.1878 50.9287 48.9471H49.9287C49.9287 53.5749 53.0208 57.4824 57.0675 57.7476L57.1329 56.7498ZM58.0001 65.1765L58.0001 57.6618L57.0001 57.6618L57.0001 65.1765L58.0001 65.1765ZM8.4 66.0765H57.1001V65.0765H8.4V66.0765ZM7.5 57.6618V65.1765H8.5V57.6618H7.5ZM14.5714 48.9471C14.5714 53.1878 11.7593 56.5274 8.36721 56.7498L8.43262 57.7476C12.4793 57.4824 15.5714 53.5749 15.5714 48.9471H14.5714ZM8.36721 41.1444C11.7593 41.3668 14.5714 44.7064 14.5714 48.9471H15.5714C15.5714 44.3193 12.4793 40.4118 8.43262 40.1466L8.36721 41.1444ZM7.5 32.7178V40.2324H8.5V32.7178H7.5ZM8.43262 40.1466C8.44748 40.1475 8.46226 40.154 8.47427 40.1663C8.48732 40.1796 8.5 40.2034 8.5 40.2324H7.5C7.5 40.7375 7.90511 41.1141 8.36721 41.1444L8.43262 40.1466ZM8.5 57.6618C8.5 57.6908 8.48732 57.7146 8.47427 57.7279C8.46226 57.7402 8.44748 57.7467 8.43262 57.7476L8.36721 56.7498C7.90511 56.7801 7.5 57.1567 7.5 57.6618H8.5ZM8.4 65.0765C8.45523 65.0765 8.5 65.1213 8.5 65.1765H7.5C7.5 65.6736 7.90294 66.0765 8.4 66.0765V65.0765ZM57.0675 57.7476C57.0526 57.7467 57.0378 57.7402 57.0258 57.7279C57.0128 57.7146 57.0001 57.6908 57.0001 57.6618L58.0001 57.6618C58.0001 57.1567 57.595 56.7801 57.1329 56.7498L57.0675 57.7476ZM57.0001 40.2324C57.0001 40.2034 57.0128 40.1796 57.0258 40.1663C57.0378 40.154 57.0526 40.1475 57.0675 40.1466L57.1329 41.1444C57.595 41.1141 58.0001 40.7375 58.0001 40.2324L57.0001 40.2324ZM8.4 31.8178C7.90295 31.8178 7.5 32.2207 7.5 32.7178H8.5C8.5 32.773 8.45523 32.8178 8.4 32.8178V31.8178ZM57.0001 65.1765C57.0001 65.1213 57.0449 65.0765 57.1001 65.0765V66.0765C57.5972 66.0765 58.0001 65.6736 58.0001 65.1765L57.0001 65.1765ZM57.1001 32.8178C57.0449 32.8178 57.0001 32.773 57.0001 32.7178L58.0001 32.7178C58.0001 32.2208 57.5972 31.8178 57.1001 31.8178V32.8178Z" fill="url(#paint3_linear_10_61)" mask="url(#path-3-inside-1_10_61)"/>
</g>
<g filter="url(#filter2_d_10_61)">
<g filter="url(#filter3_di_10_61)">
<ellipse cx="1.51654" cy="1.39932" rx="1.51654" ry="1.39932" transform="matrix(0.440756 -0.897627 0.827367 0.561662 26.857 43.3537)" fill="#D9D9D9"/>
</g>
<g filter="url(#filter4_di_10_61)">
<path d="M24.6228 55.0931C24.555 55.0059 24.5609 54.8697 24.6361 54.7888L37.6591 40.7757C37.7343 40.6948 37.8503 40.6999 37.9181 40.7871L39.2237 42.4646C39.2916 42.5518 39.2856 42.688 39.2104 42.769L26.1875 56.782C26.1123 56.8629 25.9963 56.8578 25.9285 56.7706L24.6228 55.0931Z" fill="url(#paint4_linear_10_61)"/>
<path d="M24.6228 55.0931C24.555 55.0059 24.5609 54.8697 24.6361 54.7888L37.6591 40.7757C37.7343 40.6948 37.8503 40.6999 37.9181 40.7871L39.2237 42.4646C39.2916 42.5518 39.2856 42.688 39.2104 42.769L26.1875 56.782C26.1123 56.8629 25.9963 56.8578 25.9285 56.7706L24.6228 55.0931Z" stroke="url(#paint5_linear_10_61)"/>
</g>
<g filter="url(#filter5_di_10_61)">
<ellipse cx="1.51654" cy="1.39932" rx="1.51654" ry="1.39932" transform="matrix(0.440756 -0.897627 0.827367 0.561662 33.9286 54.44)" fill="#D9D9D9"/>
</g>
</g>
<defs>
<filter id="filter0_f_10_61" x="0.50061" y="0.00183105" width="76.2858" height="82.6445" filterUnits="userSpaceOnUse" color-interpolation-filters="sRGB">
<feFlood flood-opacity="0" result="BackgroundImageFix"/>
<feBlend mode="normal" in="SourceGraphic" in2="BackgroundImageFix" result="shape"/>
<feGaussianBlur stdDeviation="12" result="effect1_foregroundBlur_10_61"/>
</filter>
<filter id="filter1_bd_10_61" x="4" y="28.3178" width="57.5001" height="45.2587" filterUnits="userSpaceOnUse" color-interpolation-filters="sRGB">
<feFlood flood-opacity="0" result="BackgroundImageFix"/>
<feGaussianBlur in="BackgroundImageFix" stdDeviation="2"/>
<feComposite in2="SourceAlpha" operator="in" result="effect1_backgroundBlur_10_61"/>
<feColorMatrix in="SourceAlpha" type="matrix" values="0 0 0 0 0 0 0 0 0 0 0 0 0 0 0 0 0 0 127 0" result="hardAlpha"/>
<feOffset dy="4"/>
<feGaussianBlur stdDeviation="2"/>
<feComposite in2="hardAlpha" operator="out"/>
<feColorMatrix type="matrix" values="0 0 0 0 0 0 0 0 0 0 0 0 0 0 0 0 0 0 0.25 0"/>
<feBlend mode="normal" in2="effect1_backgroundBlur_10_61" result="effect2_dropShadow_10_61"/>
<feBlend mode="normal" in="SourceGraphic" in2="effect2_dropShadow_10_61" result="shape"/>
</filter>
<filter id="filter2_d_10_61" x="9.57559" y="25.7182" width="44.6954" height="46.1212" filterUnits="userSpaceOnUse" color-interpolation-filters="sRGB">
<feFlood flood-opacity="0" result="BackgroundImageFix"/>
<feColorMatrix in="SourceAlpha" type="matrix" values="0 0 0 0 0 0 0 0 0 0 0 0 0 0 0 0 0 0 127 0" result="hardAlpha"/>
<feOffset/>
<feGaussianBlur stdDeviation="7.5"/>
<feComposite in2="hardAlpha" operator="out"/>
<feColorMatrix type="matrix" values="0 0 0 0 0 0 0 0 0 0 0 0 0 0 0 0 0 0 0.25 0"/>
<feBlend mode="normal" in2="BackgroundImageFix" result="effect1_dropShadow_10_61"/>
<feBlend mode="normal" in="SourceGraphic" in2="effect1_dropShadow_10_61" result="shape"/>
</filter>
<filter id="filter3_di_10_61" x="25.8461" y="40.7062" width="5.67413" height="6.14429" filterUnits="userSpaceOnUse" color-interpolation-filters="sRGB">
<feFlood flood-opacity="0" result="BackgroundImageFix"/>
<feColorMatrix in="SourceAlpha" type="matrix" values="0 0 0 0 0 0 0 0 0 0 0 0 0 0 0 0 0 0 127 0" result="hardAlpha"/>
<feOffset dy="1"/>
<feGaussianBlur stdDeviation="0.75"/>
<feComposite in2="hardAlpha" operator="out"/>
<feColorMatrix type="matrix" values="0 0 0 0 0 0 0 0 0 0 0 0 0 0 0 0 0 0 0.25 0"/>
<feBlend mode="normal" in2="BackgroundImageFix" result="effect1_dropShadow_10_61"/>
<feBlend mode="normal" in="SourceGraphic" in2="effect1_dropShadow_10_61" result="shape"/>
<feColorMatrix in="SourceAlpha" type="matrix" values="0 0 0 0 0 0 0 0 0 0 0 0 0 0 0 0 0 0 127 0" result="hardAlpha"/>
<feOffset dy="8"/>
<feGaussianBlur stdDeviation="2"/>
<feComposite in2="hardAlpha" operator="arithmetic" k2="-1" k3="1"/>
<feColorMatrix type="matrix" values="0 0 0 0 1 0 0 0 0 1 0 0 0 0 1 0 0 0 0.25 0"/>
<feBlend mode="normal" in2="shape" result="effect2_innerShadow_10_61"/>
</filter>
<filter id="filter4_di_10_61" x="23.0756" y="40.2182" width="17.6954" height="20.6212" filterUnits="userSpaceOnUse" color-interpolation-filters="sRGB">
<feFlood flood-opacity="0" result="BackgroundImageFix"/>
<feColorMatrix in="SourceAlpha" type="matrix" values="0 0 0 0 0 0 0 0 0 0 0 0 0 0 0 0 0 0 127 0" result="hardAlpha"/>
<feOffset dy="1"/>
<feGaussianBlur stdDeviation="0.75"/>
<feComposite in2="hardAlpha" operator="out"/>
<feColorMatrix type="matrix" values="0 0 0 0 0 0 0 0 0 0 0 0 0 0 0 0 0 0 0.25 0"/>
<feBlend mode="normal" in2="BackgroundImageFix" result="effect1_dropShadow_10_61"/>
<feBlend mode="normal" in="SourceGraphic" in2="effect1_dropShadow_10_61" result="shape"/>
<feColorMatrix in="SourceAlpha" type="matrix" values="0 0 0 0 0 0 0 0 0 0 0 0 0 0 0 0 0 0 127 0" result="hardAlpha"/>
<feOffset dy="8"/>
<feGaussianBlur stdDeviation="2"/>
<feComposite in2="hardAlpha" operator="arithmetic" k2="-1" k3="1"/>
<feColorMatrix type="matrix" values="0 0 0 0 1 0 0 0 0 1 0 0 0 0 1 0 0 0 0.25 0"/>
<feBlend mode="normal" in2="shape" result="effect2_innerShadow_10_61"/>
</filter>
<filter id="filter5_di_10_61" x="32.9177" y="51.7925" width="5.67413" height="6.14429" filterUnits="userSpaceOnUse" color-interpolation-filters="sRGB">
<feFlood flood-opacity="0" result="BackgroundImageFix"/>
<feColorMatrix in="SourceAlpha" type="matrix" values="0 0 0 0 0 0 0 0 0 0 0 0 0 0 0 0 0 0 127 0" result="hardAlpha"/>
<feOffset dy="1"/>
<feGaussianBlur stdDeviation="0.75"/>
<feComposite in2="hardAlpha" operator="out"/>
<feColorMatrix type="matrix" values="0 0 0 0 0 0 0 0 0 0 0 0 0 0 0 0 0 0 0.25 0"/>
<feBlend mode="normal" in2="BackgroundImageFix" result="effect1_dropShadow_10_61"/>
<feBlend mode="normal" in="SourceGraphic" in2="effect1_dropShadow_10_61" result="shape"/>
<feColorMatrix in="SourceAlpha" type="matrix" values="0 0 0 0 0 0 0 0 0 0 0 0 0 0 0 0 0 0 127 0" result="hardAlpha"/>
<feOffset dy="8"/>
<feGaussianBlur stdDeviation="2"/>
<feComposite in2="hardAlpha" operator="arithmetic" k2="-1" k3="1"/>
<feColorMatrix type="matrix" values="0 0 0 0 1 0 0 0 0 1 0 0 0 0 1 0 0 0 0.25 0"/>
<feBlend mode="normal" in2="shape" result="effect2_innerShadow_10_61"/>
</filter>
<linearGradient id="paint0_linear_10_61" x1="52.7864" y1="24.0018" x2="18.8422" y2="51.7159" gradientUnits="userSpaceOnUse">
<stop stop-color="#00FFB6"/>
<stop offset="1" stop-color="#26EDD3"/>
</linearGradient>
<linearGradient id="paint1_linear_10_61" x1="24.4999" y1="24" x2="55.2918" y2="69.8286" gradientUnits="userSpaceOnUse">
<stop stop-color="#14DC9E"/>
<stop offset="1" stop-color="#1C4647"/>
</linearGradient>
<linearGradient id="paint2_linear_10_61" x1="0.574983" y1="68.9024" x2="36.5903" y2="17.6301" gradientUnits="userSpaceOnUse">
<stop stop-color="white" stop-opacity="0.2"/>
<stop offset="1" stop-color="white" stop-opacity="0.5"/>
</linearGradient>
<linearGradient id="paint3_linear_10_61" x1="52.5501" y1="68.9024" x2="26.5643" y2="22.7066" gradientUnits="userSpaceOnUse">
<stop stop-color="white" stop-opacity="0"/>
<stop offset="1" stop-color="white"/>
</linearGradient>
<linearGradient id="paint4_linear_10_61" x1="22.9378" y1="56.0669" x2="27.2586" y2="59.2147" gradientUnits="userSpaceOnUse">
<stop stop-color="white" stop-opacity="0.2"/>
<stop offset="1" stop-color="white" stop-opacity="0.5"/>
</linearGradient>
<linearGradient id="paint5_linear_10_61" x1="24.5666" y1="58.1598" x2="21.1545" y2="53.8254" gradientUnits="userSpaceOnUse">
<stop stop-color="white" stop-opacity="0"/>
<stop offset="1" stop-color="white"/>
</linearGradient>
</defs>
</svg>
